<mxfile host="65bd71144e">
    <diagram id="eRUnp3iuxbaWEH4q1Kb_" name="Page-1">
        <mxGraphModel dx="255" dy="181" grid="1" gridSize="10" guides="1" tooltips="1" connect="1" arrows="1" fold="1" page="1" pageScale="1" pageWidth="850" pageHeight="1100" math="0" shadow="0">
            <root>
                <mxCell id="0"/>
                <mxCell id="1" parent="0"/>
                <mxCell id="30" value="" style="rounded=0;whiteSpace=wrap;html=1;shadow=0;labelBackgroundColor=none;strokeColor=none;fontColor=#00BED4;fillColor=#FFFFFF;" parent="1" vertex="1">
                    <mxGeometry x="100" y="20" width="420" height="240" as="geometry"/>
                </mxCell>
                <mxCell id="14" value="" style="group" parent="1" vertex="1" connectable="0">
                    <mxGeometry x="260" y="40" width="100" height="100" as="geometry"/>
                </mxCell>
                <mxCell id="12" value="&lt;font color=&quot;#999999&quot;&gt;Server&lt;/font&gt;" style="whiteSpace=wrap;html=1;aspect=fixed;fillColor=#FFFFFF;rounded=1;arcSize=1;strokeColor=#DDDDDD;shadow=1;verticalAlign=top;" parent="14" vertex="1">
                    <mxGeometry width="100" height="100" as="geometry"/>
                </mxCell>
                <mxCell id="3" value="" style="shape=image;verticalLabelPosition=bottom;labelBackgroundColor=default;verticalAlign=top;aspect=fixed;imageAspect=0;image=data:image/svg+xml,PHN2ZyB4bWxuczp4bGluaz0iaHR0cDovL3d3dy53My5vcmcvMTk5OS94bGluayIgeG1sbnM9Imh0dHA6Ly93d3cudzMub3JnLzIwMDAvc3ZnIiBmaWxsPSJub25lIiB2aWV3Qm94PSIwIDAgNjQgNjQiIGhlaWdodD0iODAwcHgiIHdpZHRoPSI4MDBweCI+PHBhdGggZD0iTTAgMGg2NHY2NEgweiIgZmlsbD0idXJsKCNhKSIvPjxkZWZzPjxwYXR0ZXJuIGhlaWdodD0iMSIgd2lkdGg9IjEiIHBhdHRlcm5Db250ZW50VW5pdHM9Im9iamVjdEJvdW5kaW5nQm94IiBpZD0iYSI+PHVzZSB0cmFuc2Zvcm09InNjYWxlKC4wMDIpIiB4bGluazpocmVmPSIjYiIvPjwvcGF0dGVybj48aW1hZ2UgeGxpbms6aHJlZj0iZGF0YTppbWFnZS9wbmc7YmFzZTY0LGlWQk9SdzBLR2dvQUFBQU5TVWhFVWdBQUFmUUFBQUgwQ0FZQUFBREwxdCtLQUFBQUNYQklXWE1BQUFzVEFBQUxFd0VBbXB3WUFBQUFHWFJGV0hSVGIyWjBkMkZ5WlFCQlpHOWlaU0JKYldGblpWSmxZV1I1Y2NsbFBBQUFLTnRKUkVGVWVOcnMzVjF3WE5kaEgvQ3pBRWlLbENoU2NsdzdFNnVFNG1hbW5uWXFLdTJESHp3V3FFeGl4NDBqS3FtYjFHNU0yT1BKeUlrZFFXM1NHWGVtRmZSUTV5R1pDZFZKYTd2VldHQmEyVmFrU0ZUVXhJMG5pVUNQSC9KbXFpOTlVZ01tc1dWSmxrU1ErRnpzUisvQm5pV1hJQmJZWGV6bnhlOG5yUlphQUx2WXMzdjNmODkzb1ZxdEJnQmd0QlVFT2dBSWRBQkFvQU1BQWgwQUVPZ0FJTkFCQUlFT0FBaDBBRUNnQTRCQUJ3QUVPZ0FnMEFFQWdRNEFBaDBBRU9nQWdFQUhBQVE2QUFoMEFFQ2dBd0FDSFFBUTZBQWcwQUVBZ1E0QUNIUUFRS0FEZ0VBSEFBUTZBQ0RRQVFDQkRnQUNIUUFRNkFDQVFBY0FCRG9BQ0hRQVFLQURBQUlkQUJEb0FDRFFBUUNCRGdBSWRBQkFvQU9BUUZjS0FDRFFBUUNCRGdBSWRBQkFvQU9BUUFjQUJEb0FJTkFCQUlFT0FBSWRBQkRvQUlCQUJ3QUVPZ0FJZEFCQW9BTUFBaDBBRU9nQUlOQUJBSUVPQUFoMEFFQ2dBNEJBQndBRU9nQWcwQUVBZ1E0QUFoMEFFT2dBZ0VBSEFBUTZBQWgwQUVDZ0F3QUNIUUFRNkFBZzBBRUFnUTRBQ0hRQVFLQURnRUFIQUFRNkFDRFFBUUNCRGdBQ0hRQVE2QUNBUUFjQUJEb0FDSFNCRGdBQ0hRQVE2QUNBUUFjQUJEb0FDSFFBUUtBREFBSWRBQkRvQUNEUUFRQ0JEZ0FJZEFCQW9BT0FRQWNBQkRvQUlOQUJBSUVPQUFJZEFCRG9BSUJBQndBRU9nQUlkQUJBb0FNQUFoMEFFT2dBSU5BQkFJRU9BQWgwQUVDZ0E0QkFCd0FFT2dBZzBBRUFnUTRBQWgwQUVPZ0FnRUFIQUFRNkFBaDBBRUNnQXdBQ0hRQVE2QUFnMEpVQ0FBaDBBRUNnQXdBQ0hRQVE2QUFnMEFFQWdRNEFDSFFBUUtBRGdFQUhBQVE2UUkrZHV2LzlKN09yMDlsbE1ydk12L1NYZnpXblZCRG9BS01YNkF2WjFZbUdteTVsbCtrczJPZVZEZ0lkWURUQ2ZDcTdlcW5KdHk5a2w1a3MyQzhxS2ZKa1RCRUErOHg5MmVXN1dlalBaWmRKeFlFYU9zQm8xdEFiTFdhWHMvR1MxZGd2S3puVTBBRkcwN0hzOG1oMldjaE9BcVlWQndJZFlQU0QvY2tzMUMrbTJqMk1IRTN1UU82MDBlVGVUQnc0RjBmRUx5aE4xTkFCUmxjY09QZlhhZURjY2NXQkdqckFhTmJRR3hrNGh4bzZRQTdVQjg1ZE5IQU9OWFNBMGEyaGIvVnlxQzFNTTYra1VVTUhHRjMzeEpPRjJMK3VLQkRvQUtQdlRCYnFzNG9CZ1E0dytxWVZBUUlkWVBTZFVBUUlkQUJBb0FNQUFoMEFCRG9BSU5BQkFJRU9BQWgwQUJEb0FJQkFCd0FFT2dBZzBBRkFvQU1BQWgwQUVPZ0FnRUFIQUlFT0FBaDBBRUNnQXdBQ0hRQUVPZ0FnMEFFQWdRNEFDSFFBRU9nQWdFQUhBQVE2QUNEUUFVQ2dBd0FDSFFBUTZBQ0FRQWNBZ1E0QUNIUUFRS0FEQUoyYlVBVEQ3OVQ5NzUvS3J1SmxJYnVjZitrdi8rcXlVZ0ZBb0k5T2tNOWtWN1BaNVZqRHpVOW10NS9Mcm1jRWUyLzk4bGNlK0xGREV3ZStNRllZKytteFF1SDJjaWxjdWJxNjhoLy82RGRlZkZycDlPMFlPSjFkbmN3dWw5UEo3SUpTNlV1NUgwK2ZQZFBwODJjeGxyL1BuZUZXcUZhclNtRTRhK1J6MmVYRURqOFdEN0N6MmNFMXE4UzY3OVBuUHZiRW5iY2QvZlI0WWJ3UUQ1RjRuSlRMMVhEbHlrcFkyVmgvNWNyYXlpLzhyMy96di8rUGt1cHBrSi9kNWhobzZXUTJIVU12OWVOdnpmNld3ajZvU1BqY0VlaTBlU0JOcGcreEI5cjR0VXZwQSs2OEV0eTc2YmxmbkRsMjY1RXZIajU0NkhDMWt0MVFMWVI2b01mcmxaWDFVQ3lXUWlXN0lRdjJiNzk2NWMzVEY3N3diVFdXN2gwREo5TXhjTjllVG1ZRmVzY1ZpVmoyOTdUNHVUT2RQZmQ1NzFxQnpvMEhVbXplaW1mRmorN2hiaTZrWUwrb1JOdjN5YmtIUDNENzRWdWVPWHJreUxzM0Q0a1k1TnNFZWlXNzhjcmlXdnhHUEh4Q3VWb3VMYSt2L2U0ZmZ2NkZMeWpGUFI4RE1hQWY3c2JKckVEdmVVV2k4WE5uV2xlSVFLZDJNRTJuZytsWWwrN3k4ZmpCcUorck5iL3k1QU1uRGg4NmVPNk8yMjc5NFBqWVdIWTgxQUs4V2FCbi93M3I2Nld3dGxLTWVaNzl1L21mc0Y3YXVMeTZzZjdRTTUvL1kvM3I3UjhET3pYeGRuUXlLOUQ3VnBId3VTUFFhYk41cTEyTDZlQTZxNlNiKzlSVER6NlJCZm1aUXdjbUpnclZzYzFLZHl1QkhxK1hycTZGU3FWU080Z0toWFFkd25KeC9aWDFVdkdubnYzOGk1ZVVjRXZId0Z6WWVheElPNjcxcjJmM0hlLzNqRUR2VzBXaS9ya1R5My9PdTF1Zzc1Y1BzY25RZWZOV3UvUnpiZU9ULytQblo0N2VldWpSMnc3ZmNqd0dlYXhsdHh2b3BZMXlXRjVlRHluTGJ3ajEyTCtlMWRhLzlkUm5uL3V3MG01NkRNUVAvZnQ2ZERKN3NVZjNQZktCbms2aVpudGNQaStuWVBlNUk5QnoreUhXemVhdGR1bm55bno4M0Q4L2NkdVJnMzl4L09qaDk0WVU0cDBHZXZ6LzFaVmkyTWlDdlpibGhjM3JRa3IxZUYycWxrdFgxMVovNnc4Lzk0S1drc0VmQS9zNjBOTkoxR3kvV2kwYVdreG05YThMOUx4OWtFMm5nK25FZ1ArVWZkdlA5ZW1uUHpwLzdQYkRINXdZR3l0c2huY1hBcjFTcVlibHBmV3dlVU5EZjNwandFZXhmMzI1dVBiUlp6NzN4OS9aNThkQXQ1dDRCWHJySjFFekF5cjd4ZlM2bjlXL0x0QkgvVU5zS3ZTK2VhdVRBMnpmOUhQOXl0Yys4dHZIajkzeW13Y1BqRThVUWd6d0ZONWRDUFI0WFZ6ZjJCd2t0MTNUZTJPb3g5dXZycTllTEpZMlRtZkJmbW1mSFFPOUdpc2kwSGN1KzJaeitRZkI5RnFCUHJJZllwT2gvODFiN2NwMVA5ZkhuL3JRTHgwOWV2RExSNDRjcVBXVHh5RHZRYURIL3l3dnh3RnlZZHRRdjFaclR6ZFVxNVhxVW5IdEcwODk5TnpIOThFeDBLK3hJZ0w5eHJKdlpTNy9vSmhlSzlCSDVrTnMwTTFiblhnaEhXQUxlWGdOZnZsLy9zeUp3NGZIeng4N2Z2RGtqY0hkdTBBdmxjdGhkV1dqYVlpbnl2b050eGZMcGRYbDliVi8vNDFmUDMvV01TRFF1MWoyWjRlOElsRm4rV3FCUHRRZlpNUFV2TldKeDhLSTkzTjk4dGtQUFgvN3NZa0h4c2RyL2VUOUN2VDRUeHdnRjVlR2JhWHB2ZkgyMVkzMUg2d1Uxei8yaDcvK3duZHljQXhNaCtFWUs3THZBajByKzlrUlBJa3l2VmFnRDkySDJEQTNiM1Z5Z0kxYy8vb25udjdwbWFOM2pQL09nUU5qRTQwQjNjOUFyMlJoSHBlRjNTbThHMi9mV211L3NycHlJYXUxbjhtQy9kSUlIZ05UWWZqR2l1eUxRTy9CWFA1Qk1MMVdvQS84UTJ5VW1yZmFOUkw5NngvLytzOTg0TlpqaFJjUEhTa2Nyd1YwSVF3cTBHc0Q1RXFiMDlpdWgvak8vZWxiUTcxVUxwZVdpbXZudnZiUWM1OXhEQWowWGNwK012UnVMditnNUtyN1Q2Q1BUcGpIMnNoKzZDTWN5bm1rbi9qNmgwNGN1Q1djdSsyT1FzT0gyZUFEUFU1alcwMjE5RlpEZkx2YlYwdkZ5NnZyYTQ5OS9kZUd0Mzk5SHgwRFF4WG9IYTU1UDJwR3Z2dFBvSTlHa0k5NlAza25obW9lNlpsblAvVEVyWGNVUGowMkhyWjhpQTQrME9OdHNZYStVU3lGVnB2ZXQ5N2VHUEJMNjZ1dnJHMXNUSC9qMTg1L3h6RWcwUE04bDcvSjU0NWxaQVY2VHc2a1BQV1RkK3BTcXEwUDVBRDc1RE1mbmpsOE5Id3hxNWtmYnZKV0hvcEFqOWRyYXh2WjcxWkNwLzNwamFGZWlkUGMxdGUrL1FlLyt1eVVZMkIvQnZwK21NdS9nd3ZwYzJmZU8wMmc3L1ZBMmcvTlcwTjlnSDN5NlE5LzRNQ1JNSmVGK1h0M2VTc1BUYUNYeTVXd25vVjY4eEJ2dnltK1ZLNlVycXl0L083WEhucnVDNDZCL1JIbysya3Vmd3RNY3hQb2V6cVk5cnFsb3dOc1QwSCtzeWNtRG9WenR4eXRmdkRtNXZYaER2UjRYU3lXUXJsVTJiVUd2dVB0Mnd5b1d5c1dMeThWVngvNitrUG5uM1lNNURQUTg3cm1mUmRzZHY5bDVUMnJLQVI2cXdkVGJGcWNDL3V6ZWF1VEE2enIvVnkvOHJXUC9LZmIzbG41ZCtNSHdrUWJiK1doQ3ZSS2RyMitWcXdQajl0emYvclc0RjlhWC91L0s4WDFuLzNHWjg5ZjZzRXhNQlZHZnlyVVNBYjZmcDNMM3liTHlBcjBscytNTHpxWTJpKzZialhCUC9qNHo4MWx0Zkl6Ny9qeGNydHY1YUVLOVBpdDBrWXB1MVJhQ3UvNjdlM1U1amNxNWNvYlZ4WS8rdXpuWHZ6VExyNy9ZNUJyNGgxQW9QZHpEL2VjZU1TaU5EY2FVd1EzT0MzTU96TFRqVHY1eGYvODg5TlpxSjFaWHhvTDVlTG9GOHI0eEhoYXY3MzIvOXRmYjU0bFhMdmgrazNWNjk5cWN2djZ4c2JZRzFjWHY5akZQL204TUI5WVplSzBNRy9iNzZVV1ZRVDZ0aVlWUVVlNkVnSlo5azBYYXZYbGNQbnZKbkpSTUJNSHhsSlcxMU44YTRodmU5T08xM1d2TGI0ZHIrNjU3N2MvdU9jUHRSUW9SckFQenJRaTZMZ1Noa0JuMkd4R2VhSFdCRjNNYXVuRjVjTG9IMkJqMmZNWksxeUw1T3FXcjZwYmIwL0JYNis5Vnh0cTc2R2hscjY4dGhiNzBlc1BjN3dMZjZxYXptQWRWd1FJZFBJVDZLbXZ1QjdzUzYrTjUrSjVqVStNWGU5emJ3anBWc0k3TkdsNi85dTMzL0NHQVFRNlF4N3FLZGczbHNmRDZ0dmp1WGhPWXhOak4yYjFsdXVibStDYjk2ZS92YklVaXFXU053c2cwQm5XNUF2MVpkQ3ZCZnZ5R3ptcHBZK1BYVzlZYjZFRzNxei92RlNwaE5ldldGc0RFT2dNZGFCWGE5SFZFT3lWNGxoWWZqMGZBK1FLNDJQWHByUjEwcDhlLzMxcitXb29sdFhPQVlIT1NOVFNid3oybFRmSFE3V2NnNE50ckJDbnRWK2J0OTV1ZjNvNUs0UTNsNjk0andBQ2ZVUTlubDN1VFl0WDNKMWRQaFZxS3lYbEw4c0wxL2NSYnd6MmFxVVFWdDdLU1MxOWJHdDR0OUtmWHJ0Ky9lcGlLRzl1K3JLdkxLWmo0SUtQZ3I2TFpmNWdkamtWYWx1YU11UW1GTUZRSDB6VGpYdVJwNi9uVHQzLy9yZ0F5RXpJMjM3VWhWUXhMelFFWEtHV2FNdXZqNGRianBmRCtJSFJYdGt3amd1b0ZDcWhrajI1c2ZoRXEra0pWOU1KVExWV2l5OXMxdU1McVVpcW9WUXViemEzNzhPVDJkbjZmZ0g3YlB2UVFkcHVhZFg1dEpLZHpXTFUwR256WUlwTHFVNDFobm1qK0FHWE5paUljNGZQNWVlcFYydWhWdGkreHA2WEFYSWhOcjF2VG1QYm9UOTlTOVA3RzB1TCsrMWs5dTdzUFg3RDVqOXB6NEJKdGNXZXRvYkVzajI1M1RycDhmTW91NXhPTmZhWEZaY2FPanNmVExQdHJFMmNBbis2NGN4NXREZVV1YmIrU2ozVUN6ZlUyTmN1ajRjamQ1YkR4QzJqdi85QXJLWEg4K25OTStwcWJUR2RhNVgxN0l0Q1dqSzJrSjNnckJTTFlYRjFlYi9XREc4Nm1ZM0hpZHBpMTUxTG56OExMWHp1ek1mUTEyS2loczcyWXRQaVpLY2JEY1FETEx2RTJ2cW4wb25CYUFmNnRWSHVOOWZZbDE3THlUbG85bHdxMVVxVFFYSGhobjcwSHk3bnZuYStXVFBNM3NPVHJlNmd0YVcyZU1sSHlKNWFRMktMNEhRclliN2xOYWkzbUR5dUdBVTZUWm9XTzVXTEpzbkN6c0crc1RLMmVjbURXRXV2YmJWNjgycnQ5YWIzbFkzMXJJYStudmVhNFdTbmUxeW5rOW40bm45a3BFOW1CM01TOWFuVXRUZS9oOCtjMlAwWHgvTGNIUVl6Y05HaURBMDB1US9PQzZtRzBWVU5UWkx4YlB2SjBRcnplblcxME5EOEhtNXFpci82NmtTNDg3Mmp2eDFiZkdybDdKL3g3SjlhcGhjMm05aXIxNXJncStIMXBiZXZiYmQ2YmVHWi9Kek16blpyMjkzWXVwV2E0ZU9Kd2NNK1huWjB3MkREWmo0Nzk1bXBVTnRPOTBUOTlmclM5QlB6elZwTXNxdXA3RFdJdnhOYldmclJETCtZSGdzMTlJR2I2ZVdkcDlyNlNFMzF1VDRBcm5vOTNMZXBzY2QxVmRZVzgvSFdMVlhMbXpYMGEvODBUR0c3dXI2NnVUSmNJUlN1NzR0ZTN4dDl0RDJ5MTVwaEM3VkZ6ZkRiZTNtM0ZzRXN5Q2V6UzN4dFhnclh0NU9PTy9HOWxOMCtGNysvVTR0Sk9xbnFSNWlmYnJlYlFLRFRrOXBKbjk2STh5TlZLb1d0STl1M0NmYjB2YzNGWm5JeUpidFVLZFZDdmFFL1BmNy81ZFdsaGgzb0Nua0o5cGM3SFN2U1JyQXZwSm9sTjV2ZEljaVBaNWY0MnZ4MWFMNlZidHl6L1dMMmM3TTd0WmIwK0lRcWR0T2M3UFlKb1VDSHJycStPdHkyd2Q0UTd1VlNJUmNidDJ3R2VpaW5BWExYKzlPdnJpK0hjbmJiMWgzb2NoRHMranlIc1B5emdJN2RmL0ZFcUpYdWl0aWMvbWoyT3d2cDk3YlRpd3BMeHdQNDlndDk2QXhWRGYzYXNtZ3B6UnU3MHE4dHZyTDVkU0dzWklGKytJN3k1dXBybzI2OXNoRU9qOWVlU0xsU0RWZUxxOWVXbGJscHBaMHRoVkl0Rkx4MzZGZ1d5bkdHelBNZC9PcUo5SHU5ZmdQRzV2V1oxSTJJR2pxakUraGgyL1hjQy9XTWI2aTF4eHJ0VWs0MmJvbTE4WTFLZWZNNVhTMnVYSnVUSGhwcTVJMWJ5MjZ0c2NNZUhCL2l2eTNPMkprVTVtcm9qSEtvVjV2VTJOUHQ5UnI3MnRWQ09QSWpoVENlZzNmeVdxa1lDaE1ITjZlcWJUN2RhdUg2eVV1TTdmcVRibFpqaC95NGFlbHJCRG9qRmVZTmFkMUdzQy8rSUlRNzN6UDZUei9HOXZMR1dyalcyWER0ZWJjUzdKQUxsMUtRenlzS2djNm8xODYzTFB2YVNyQy84WVAxY09qMmlYRGIwZEYvTzFkU1VCZHVxb0czRU93d3V0cGUrcHFiNlVObnFQSzgyYkt2Tjg5SHIvV3hyNjRYUTNHakZGNzcyNDM4SEpUMWZ2RnQrOHpUMXlGOXJRK2QwVmRmTFZDWXE2R1RwMFRmV2huZHFjWWVhN05YbDJ2TG9pNWZLWWNyYjVmQ3NlTUg4MU1XcVJDdUxaeTNUWTI5MWxpaHlaMlJGUHZKNCtqMWk0cENvSk83UUwvZW5ONUtzQzh2RjBPNWZIMTFtZTh2Rk1PeGsva0k5T3JtZnVsak54UkN0U0hMcnpkcE5CWVNqSVRZVHo1cjVIcjNhWEpuNkdxbWpWUFdDb1h0bStMTGxVcFlXcnB4MDVMaWVpWDg4QWZGWEJSRGJSbll5cTVON2ZYdnd4NHM3T0YzbTIySWM3bkp6OWIzV3hmbUFwMzhoM2xyd1g3bHl0cTJkL0dEdjF2UGF1MzVhSUl1VmNyWDUrQTNCSHZRaDA0WGZXbjZpUmpvRDRiMmwydU5QOTlzcGJpdC9lRXZwQ0NmN2NiT2tnaDBSaUhRV3dqMjRubzVySzJWdHIyTEdPWnY1S1NXdmhucTVYS1RCV1Z1REhiWVk2akhYY3RPcGhyMGJ0dlF4dTgva3YzTzVBNjdyOFhiN3cyMS9lcnZqVHRMbWxQZWUvclFHU0t0VFZtN2ZIbHR4M3Q1NDlYMThJNTNIQXFIRG83KytlcEd1UlFteGlkcVo5N2JMaWhUMjI0VldoUjNvNXR2RXVxYld5L0hIZFZDYlJPWE05djgyT2JXcStsbmQyU3dteG82KzcyR3ZzdVV0YXRYYnh3STE2eVcvdXIzVm5OVExHc2I2emRPWWR1bXhqNUNUcDY2Ly8zOVdHcjBwQU5xV3c5azVYOTZsOXI2UW5hWlRyWHJsOVBOY1VUNnZkbnRNNjJFT1dybzdQYzhUM3VSTkJ2WkhuY2lXMTVxYmI3NVd6OHNobmU5cXhRT0h6a3c4dVVTKzlMaklNQ0pzYkhOalZpdVRXRWJ6WlhpNGs1ZEY3TlE2Y2tvNSt4K0owTnQ2OVQ3SEZGTlBaK1ZVNXo3UGJ0VE0zaHFUbmRpcElZT25kZlNtNDFzdjNKNVBWUXFyWWZYMy8zTlNtNktaYVc0MW5UcjFCRWM1UjUzNlhveUM1WDU3RExWcFNBL25sMTIyOHViNjg3VVQ2ejYxR0tDUUdkL2hmbU5lNTQzQnZ2NmVqbXNMSmZhdXJ1clZ6ZkMwdFY4ckNBWDkwdGYyeWcyM1JOOVJNWGdmU2tMbExsVXMrNDB6R08vY0t4cFB1d2dhc3ZtdnVZcDJLY1ZoMENIcnRiT213WDcwbUpud2Z5M2Y3T2NtK0tKdTdIRjV2V3RXNmZtWUVoY1I3WEZXTHZQTGpISWZ5K0ZFNTNwZW9zSkFoMjJURm1yQmZ2S1VpbXNyNVU3dXJ2VmxWSjQ4ODIxWEJSTlhEMnV0clhxelh1aTU2eTJlSHFYSUorTTRSTnI5eW1NNkk2dXRKZ2cwR0hia2UyeHozenhyYjNOSy8vKzkvTlRTMS9QYXVtbGN1bW1rZTQ1cXkwK24ycUxKN2NFZWV3bm53MzZ5WHROLzdwQWh5N1V6aHVuck1XbTlpdWx0Z2JDYlNjdVJQUDlWL01UNnN0eGdGeTRjUXBiVG11TDMwMjF4YW5VeDd1UWF2SDBudjUxZ1E1N3pQTjZrM3RjcjcxVUNWZmY3czZndHRkZVc4N1ZrckN4cGg3eTA0ZStXMjB4TnEwL0dmU1REMEpqLzdvcGJBSWRXay8wUXVINjlPcTNYKy9lRXE0eHpMLzMvYXU1S2FxbDRtcXRNYU1RYk01Q1B6UzJtR2lHRitpd1c2QmY3ME12cmxYQyttcWxxM2YvMnV2TFliMVl6a1ZSMVFiSXJkWWIzcjEzNkpmWVlyS1F4aklnMEtGNURiM2VoLzdXYTczWllPVjdyK2FubHI1U1hOOWNQVThGblQ3YjdGK1BVd1ozbTVHQVFHZWZoL3FWTjB1aHZOR2IvdTRmdnJrU3JtelpSMzJVWFZsYnNuMHFnOUowUmdJQ2ZUOVo2TlBqekk5YXdjUVI3VXR2bDNyNkdOOTc5VXB1M2tqRmNpbVVxdVhERGlrR1NQKzZRTi9YNXZyeElHbFA0a3NqVkM3emwxK1AwOVI2WEt2TmF1aDVxYVVYQ29YcWM1OS84WnRkdUNzN2FIVm1zVXYzY3o0SFphRi9YYUR2TzU5S1Fkc3ZwN3Y0b2ROclo0dXJsYjdzZS9yL0xyMlZpemZUb1lrRHY5L0ZrOHhGaCtmQVRzN2ovYnljZy9MUXZ5N1E5NFc0bi9DcFhtd1p1VXN0L1dKMk5abGR6ZzE3QVQzMUM5KzZmT1RvK1B0dXVYWHNsVjQvMW5xeEZONTRhMmxrMzB6alkyT2xXdzRlL0E5LzlwdC8vaHRkZXAvRUd2cU13N1F0TVlCbnUxaitVK2x6SWcvMHJ3OUFvVnF0S29Va05SVjFleVdxMk9ROTIrOGdiL0w4NG9FVnQ1anMrcktaMmZQcjZzaXNmLzdsVXpQcnE5VkhOOVlxUGV1VG14Z2ZDei81dnJ1eTYvSHNRQmlyN2NWZUxkUzJGNC9YbFhSZHJVMFQyN3dPMVJ2K1AvNW42MjJiMTZIKy85ZHZpeVBTSzVWS0tHZDN2UFU2N25jZXh3L2M5TDMwZGYwNGpVM3NodzVNZlB2UC91MWZUUFhvUFRJWjdDZSttOFYwVEovdDBXc3dsVjZEUEsxVC8zZ3FNMTA3QW4wa0EzMHhoZWZaWVhzVHA2YXdzOTM4d09oMm9OZDk1TCtlZW1MMWF2blRXYTcxNVA3dmV2Y2Q0YTUzM1RFU2daNEYrU3NISmlaKzZrOW12bldwRCsrUlBJWktOOFNXcnBsK0hOTnBXOWo0bVpTWEZmSjZlaUtFUU85Vm9MK1FEdnFGRVhpK005MzR3T2hWb0VjZi9XLzNuOWdvVnM5bHdkNzFXbU9zcGYvVDkvMzlNREUyTWJTQlBqWmV1RHd4TWZiWU4yZisvT3dBM2lONUM1Vk9YVWpIOU1VK2wvL3hWUDU1MnVzOW5wQk85M2tza1VBWDZHMTdPUjMwOHlQMG5JK24ydnFaWVEzMHVwLzd5djBmS0s1V25sbGZyYnk3bS9mNzkrNDhHbjdpUGU4YXVrRFBmcXMwUGpGMjdrOGUvdFpuOHZBZUdlSHdpY2YwK1FHL0JwTWhmMTBoRjFLd0x3UUUraEFGK21JNjZPZEcrTG52cVgrOUg0RmVGL3ZYVjY5V2ZxZGNxazUwNno3LzJUK2NqRTNhUXhQb1l3ZkNoYkZDT1BQQzUvN3NVbDdlSXlObXM4c3NlMS9QRHRseE9oWHkxUlZ5S1N2alNla2owSWNsMEI4TFE5aFB2b2N5NktoL3ZaK0JYdmV6LytYVTgydEw1UWU2MGI5KzdMYkQ0Ui9mL1dNREQvUXdYdjFCWWF6NnNlZC83WnZmeWR0N1pJVEVmdkxaWWE0NTVxd3I1Qkg5NnQxaDJscm5Zai81M2ZFTVBrOGpOMlBUWWpwamZpd00rYnprYi83NlN3L2Vkc2ZFM1lkdkc5dHp2K2JpMG1wWVhGNGQySE1waklYVjhZUGhrZk9mKzlNZkhlWXdyNzlIc3F1VG8vQWVhVk45YXVuUU53T25BSXpINmVNNUtQZUxBVFgwQWRYUVI2NmZmQS9sMFhMZjZTQnE2STFpLy9yYVN1WEZ2VXh6TzNicjRmQ1A3bjVQZjJ2bzFlelc4ZkpYbi83VkZ6OHpvdStSeVZSVEhPWCs5Wkh1TWt1dlFUeE9IeGpGMXBCNEFpVjlCSHEvQTMzays4bjNVQzY3OXAwT090RHJQdktsVTcrOXRsVDV6VTc3MS8vQmU5NFYzbm5zOXY0RStsanBZcVZRUHYyTno3eDRLUWZ2a2FrVTdLUFd2NTZiTHJQMEdzVGo5SjRSK0hPSFpuME9nWjdmNElwbmlrL20rYURmWS9rMDZ6dTlrSlhOMUREOXJSLysvVlB6Njh2bEQ3YmJ2MzdvNElId2t6OHgyZE5BTHhWS2w4dUZqWTgrOWVrWHZwUFRZeWkrUjRhOWIzY2twcGJtOERVWXlzR0dBajIvb1hXeDRRdzN0d2Q5RjFveUd1ZXYzejJNWlJUbnJ4ZlhLbit4dGx4NWJ6dS9OL251ZDRZZnZmT09yZ2Q2T1pSTEc0WGliLzNCOUhObmMvNytPSjdlSDQ4TzRaKzNMN3JNaHZRMXNGcWNRSWU5K2JrdjMvOUxhNnVWTDdmYXY3NjVKT3hQL0hnWWkyTkd1eERvV2MyOFdpb1V2L1hWTTg5OGVKK2QrRTJHNGVuYjNaZXJsQTNKYTZCaUpOQ2h1K0l5c2xsdC9Vd3IvZXQzdmZNZDRjZmU4WTQ5QjNwV0kzK2xYTmo0cVNmLzlYT1g5bXU1RDBIZjdyNnZHUTdvTmJpUXluM2VwNDlBaDY2ckx5UGJTdi82dmUrOU94eWFPTmhSb01kKzhpek1IL3JxSjU1OWVoRFA4N056bjRrREdlc3RFcGUvTlAzRXdLY0dEV0R1dEpYSWJuNE5wa1B2KzljTmVCUG8wRCt0TENNYlI3dS85OTAvMmxhZ3gzN3lZbUg5ZDUvNCtETmZHRUNJMS90TnQxdWZmL05ETmd2MmdYN0k5bWx0OHFGWXJuV0lRNzFYL2VzR3ZBbDBHSnk0ak96YWN1V0xwV0wxOEhiZi95ZVRrK0h3d1VPN0JucnNKeThXMXI1ZERxVXpUL3lyUCtwNzgzb1c1cTNXdkRZM3hzaUNmWDdBb1RJWnVyODJ1VUJwL3pYb1Z2KzZBVzhDSFlaRHMyMWFiejl5Skx6dlBYZnRHT2pGc2JWWE5zTEc5SC8vcFdmN1BnMHRDL0twME5uODc4MkJTbG13THd3NFZMcTFqR3pmdGpYTlliQlBoYzc3MXcxNEUrZ3dmSnB0MC9xK3UrNEtSMjg1ZkZPZ1p5RitlYU93OXRoWC91VXpmUjg1blFYNVpPak9DbTJiYXl4a3dUN1FJTnpEVnI0RDJkWTBwOEUrSFZydlh6ZmdUYUREOE52c1gxK3JQTCsrVXZtUitQK0hEaHdJOTB6ZWZTM1E0M0t0YTRXVnIzN3BZMC8zZmJuV1hmckpPN1dZYXV0ekF3NlVkclpwTmZDcWQ2L0JUdjNyeWwyZ3craUovZXNiNjlYWjBrYjEySWs3M3hXT0hqa1N5aFByRjBxaGRPWXIvK0taUWZTVDkzcVhzODFhMXhEMHIrKzAxUEJpK3Q1WnplczlmUTBtUTYwRjZIUTZjWXp2OXpuakV3UTZqTHhQUFBjemswLzl3cmNXQnZIWWFRcGF1L3VRUDU0K2tPdWp5dHRwbWorWGduMWhrR1dlbW9DbjAvT09nVElmaG54YlV4RG93SFpCM2s0VGRHTXRlM3ByR0tmQmMrME1mTHBXRXg1MC96b2cwR0dVd3p6V3F0dnBKMjlwT2xvYjA5c2E3emYycjV2VERRSWRhQ1BJWTAxNkxyVGVUNzY1Um5rV3VHZmJlSXhPRmhhNWtJTGRhSElRNk1BT0lUc1oybDlvNVZ3SzJjdDdlTXgyRnhiWjAyTUNBaDN5R3VTZExJWGExZHB5UDFvRkFJRU9lUTd6ZGpjcjZXbC9kb2QvejhDWGtRVUVPZ3dxeUdPTnVPMFI1MWx3emc1eGk4SDBvS2U1Z1VBWDZOQ3ZJSjhNbmZWWjkzMU9lSWQ5K28rbnYxWC9PZ2gweUdXUWR6cXFmT0NydG5Xd090MVFMQ01MQWgzb2RpQk9oL2JuZmM4T1d5QjJNQy8rNVJUczg5NEZJTkJobElOOEtyUy9yZWxRN0h5MlMwdER1eXZYN1dtYjFyVHNiVHdwT3BsdWltVVRCd1dlMTdRUEFoMTZHWHFUb2YyMTA0ZGliL0kyUTdhZHRlWGJYa1oyeThsRHJPM1BwekNQangzSElNU1dqTk1XdWdHQkRyMEl1aGprKzZaWk9uVW54T2ZjYXY5Nnk5UHVzdnVPUVIxUGpxYTMvbnpEZ0wwWTdsTkNIUVE2ZEN2WWpxY2FaRHZUMEhJeGNLekQvZG5QWmM5OWVwY1RvemlBOE41UTJ5M3VwUzBuQlp0akRMS2ZpMlUrbVgwOTZWMElJWXdwQXRpejgyMkUrZU1waE9ieThNUmpFM3FhSHg5cnkrZGEvTFV6V1JqdnRNcGNEUHZIdHRTODQzMi9rRm9EWmh0KzdrUnFLUUNCcmdoZ1R6WFVHQ2F0OUNYSGFXaDNaeUdWeTNYUVkvOS9xbldmQ3JXdWhOMDhuSnJPdDVibnlSVGFXNXZsNXhxQy9OcGpwbkk5NlowSUlVd29BdGlUbVYyK3Y2K1dSMDNQODJTTDAvVm10aW0vNCtsK3R2YUx4L3VLSndDTFc0STlQdDZVdHlHb29jTmVOV3RxajhIelNPemYzWTl6c1ZPWFFnemd4M2I0c2FZMTYyMXE3eGRUZUI5TFh6ZmVoK2xySU5DaGM2bDV1Sm5UKzMwM3NvYis5V2FodmwxWFJUMnN0OWE2NTdMN2lxdldYVXExOWREd2MvUGVqU0RRWVMrTzd4Qm1RdWE2bHNzaWpTL1lYTDgramFEZmFxRitJcEJHdzhjYSszbEZEUHJRWVQrMEpFeW1tbXk4eEs5UGh1WjkyNHVwbHJ5UXJ1Y0hNTTk3TmozMlhQcjZzZlQzaEhUYmZPcWpqMVBiSHJQTEd3aDBHUFlnanFIMTVEYUIyOUppS3VuMzQ2Q3plOXA0MkdPcEJod3ZaOUw5WEVwQjJwZGxhV05BcDZWejUxUHRPNGI2OFZSanI2OFdGOFA4WEQrMmxJVlJvY2tkaHRkMGs4QTl2VXVRbjB3cnJUM1pacGczY3lJRjZFSnE1dTY1ZE1KeU1vVjY3RFAvYm5aNU83czhuMW9aSHR4cGNScFFRd2Z5V0t2dmxuZ3k4V2g5dzVSZTE5WlRVL3AwL1NRbDFNWXNYTFFwQ3doMHlIdVluKzVobURlS202UE03ZFpTMElNYU83QURUZTZRanpBL25rSzJYeDdvVi9NN29JWU8rMGtNMTkwMlI0bHJvY2RCWmd0aG02YnJkRkp3TWwybVVrMThKek54VFhaTjRDRFFnZTZaM3VGN2NXMzEwN3RONzByQlBKOHVaOU4wdDdNN0JQdXg5TGhuRlQ4TW5pWjNHSEZwd0ZpejJubWNjamJWeVZ6dHRPRks3Q2MvMStHSkJDRFFnVFljMytGN2MxMW9Fbzl6MlJlYmZPOGV4UThDSGVpT3FWN2VlVG9obU51aGhXREtTd0FDSGRpN2hRNXI3KzJ3WGpvSWRHQ0FnZjV3Vm9PZTJlc0RwTTFtNHBycUY3WmM0c2g1YzhSaENCamxEcU52dDBEOXZSVHFzWllkZy9saWg0UGtaaFUxQ0hTZ1IySWZkeGJZc2JaODN3NC9GdGRqZnpoZFlyOTNTRFhzaFhCOVo3WEx0bjBGZ1E0TVZxdzl2OVRtNzl5MzlTUWdCWDE5QzlWckYwdXZna0FIK2xOTGozdUVQMTZ2Z2UvUnNhMWhuOTEzRFBuWVpIOCtleXdENUdBSUdSUUgrUW4xMkUvK1dJL3VQb1o4M0IvOStTemNGOUt1Ym9CQUIzb1U2clBaMWIyaDFqL2VLN0UvL3NrczFPZlQrdStBUUFkNkVPcXh6M3NxKy9MdVZHTi91VWNQRlp2a2hUb01DWDNva045Z1h3aTF3WEx4VWwvUkxhNzdIZ040cWlHVTkrS2VkUDh6U2h3RU90Q2ZnSjhQdFhub04wa2J2TlMzVDUxTTE2MkcvWFRjRzkwMnFpRFFnY0dIZlgxYTJ2eVdvSSs3cmNYTG1SMSsvVmlxOFJ2OURnSWQ2RlFXdW1kVGpiclJiRGNXaVVsVDFNN0hHbmdLK3hOTmZ2U2tRSWZCTWlnT1Jqdk1ZOTkxbkh0KzM1YkxTOTE4bk5RZnI1OGNCRHJRSThkM0NQdVRYWDRzZmVRZzBJRWUyV2xKMW1uRkF3SWRHQTBMT3dWNmwrZUlUNnU5ZzBBSGVpQ05Uci9VNU50eDlIbFhGbjVKUzczdU5OSjkzcXNCZzJXVU80eSt1ZXp5YUpQdnhZVmZGdEpJK0xsMjkwSFBmbTh5MUJhTzJTbk1MOW1ORFFRNnNIY3hyR2RTamJ4WlRUMEcvcU5aUU1kbFlHT28xd1A0Y3NQWDljVmw2bC9IeTRrV0huL1dTd0FDSGRpanVFSmJXZ0NtbGFscTk2VExBMTE2K0JleXg1L3pLc0RnNlVPSGZJVDZmSGIxcVQ0L2JLenRUeXQ5RU9oQWQwTTkxcFJQaGVhRDVMcnBYSGFac240N0NIU2dkelgxMlBjZHQwMWQ3TUZEeEgzV1QyV1BNeTNNWWJqb1E0ZjhoWG9NMnRsNFNkUE5Zdi82VkdnK2FHNDNzY1lmMTJtZk01b2RCRHJzSzNIdTl6RFVZRk16L0Z6Nm15WkRiV3ZVcWZUdCtuYXBXODAzWEMrME85VU5FT2d3YW5hcXJaNk5HNmNNVTdOMEN1YUYwTWRGWU5LaU5yTTcxUHlCTHRHSERwMEhaQXpyWnYzVWNTR1dpNm5KZTE5S084SEZFNGo3bXZ5SW1qK29vY1BRT0IrYXI2SVdGMlY1TW9YNnpIN3BmODZlNzFTb05mUHZ0aWpObkxjUENIUVlGck5oNTJWUlE2cWhmamNMdW5NcDJGdHRocDhjc1NDZlRDRjlYd3MvZnNtQ05OQmRtdHhoRDFLL2RLc0x1c1Rnait1cXo3Wll5ejB4Q21VUSs4blRjL3JyRnNNOGRsT2M5dTZCN2lwVXExV2xBSHNQdGVsUVcxTzkxYWxobDFKdC9mdzI5eFZIbnMvdmNGOFBidmQ3SS9TOFQ1ditCZ0lkaHJxbW1zTHRUQnUvVnAvakhRTTgvdjVVQzc5Lzk2Q25rcVVXaFBoYzcybnhWMkt0L0d6MmQ4OTZwNEJBaDFFSjlwTXA3Tzdyd2QxZnlFSnhhb0RQYlRJOXQzWTJkMmwzN0FBZzBHR29ndjEwQ3I5dTlvV2ZTc3U3OXZ1NXhOYURtYkR6TnEwM25YeGtsOWxCL0wwZzBJRmVoT0ZzbTBIWVROeXE5UFFBL3Y3cFVCdk4zK3FKeWFVVTVITmVmUkRva0xkUW53eXRUWEZySm01VjJ0ZmR6VkkvZWZ5YjIrazZpSnZDbk5XOERnSWRCUHVOK2o2WXJNUEJmUytFV2ovNWdsY1pCRHJzcDJDUG9YazZYZUlndXNibTdOaGtIYWQxellmYURtZjlySlhIRTRkMnVnZGVUa0UrNzFVRmdRNE0vZ1NqM1FGOGl5bkk1NVFlQ0hTZ3MvQ2RDclg1NnVmM3VrQkxtOHUxMWowZWFvUGU5Sk9EUUFjNkROL1pjR1BmZGtmaDJyQ3Q2Y050L0ZxY2hqYXRueHdFT3RCK2lOZjcycWQzcUVXMzFmeWR0aldOWWQ3T2NxM1Qrc2xCb0FPZEIvcGNhSDIwK1k0RDFOclkxclR4Uk1GeXJTRFFnUzdWMEdPZ3R0TTBmc05TcTVackJZRU9ERSt3dDdzKy9HS3FqWWZRZmovNWpOM1FRS0FEdlEzMlhxd1BIelhkemhVUTZFQnZRcjIrVWNxalhiaTd4WFNDWUxsV0VPakFnSUo5TXJRL2g3eFI3Q2VmTlEwTkJEb3dITUhlYmpPOGJVMUJvQU5ESE95elllZDEyQzNYQ2dJZEdKRlFud3kxUldpbVFtM1RsNFhzRXZ2RzQyQzNPZjNrSU5BQkFJRU9BQWgwQUVDZ0E0QkFCd0FFT2dBZzBBRUFnUTRBQWgwQUVPZ0FnRUFIQUFRNkFBaDBBRUNnQXdBQ0hRQVE2QUFnMEFFQWdRNEFDSFFBUUtBRGdFQUhBQVE2QUNEUUFRQ0JEZ0FDWFNrQWdFQUhBQVE2QUNEUUFRQ0JEZ0FDSFFBUTZBQ0FRQWNBQkRvQUNIUUFRS0FEQUFJZEFCRG9BQ0RRQVFDQkRnQUlkQUJBb0FPQVFBY0FCRG9BSU5BQkFJRU9BQUlkQUJEb0FJQkFCd0FFT2dBSWRBQkFvQU1BQWgwQUVPZ0FJTkFCQUlFT0FBaDBBRUNnQTRCQUJ3QUVPZ0FnMEFFQWdRNEFBaDBBRU9nQWdFQUhBQVE2QUFoMEFFQ2dBd0FDSFFBUTZBQWcwQVU2QUFoMEFFQ2dBd0FDSFFBUTZBQWcwQUVBZ1E0QUNIUUFRS0FEZ0VBSEFBUTZBQ0RRQVFDQkRnQUNIUUFRNkFDQVFBY0FCRG9BQ0hRQVFLQURBQUlkQUJEb0FDRFFBUUNCRGdBSWRBQkFvQU9BUUFjQUJEb0FJTkFCQUlFT0FBSWRBQkRvQUlCQUJ3QUVPZ0FJZEFCQW9BTUFBaDBBRU9nQUlOQUJBSUVPQUFoMEFFQ2dBNEJBVndvQUlOQUJBSUVPQUFoMEFFQ2dBNEJBQndBRU9nQWcwQUVBZ1E0QUFoMEFFT2dBZ0VBSEFBUTZBQWgwQUVDZ0F3QUNIUUFRNkFBZzBBRUFnUTRBQ0hRQVFLQURnRUFIQUFRNkFDRFFBUUNCRGdBQ0hRQVE2QUNBUUFjQVd2UC9CUmdBMGNBMjBKSUUzaWNBQUFBQVNVVk9SSzVDWUlJPSIgaGVpZ2h0PSI1MDAiIHdpZHRoPSI1MDAiIGlkPSJiIi8+PC9kZWZzPjwvc3ZnPg==;clipPath=inset(14.67% 11.67% 8% 11%);imageBackground=none;imageBorder=none;" parent="14" vertex="1">
                    <mxGeometry x="10" y="20" width="80" height="80" as="geometry"/>
                </mxCell>
                <mxCell id="15" value="" style="group" parent="1" vertex="1" connectable="0">
                    <mxGeometry x="120" y="40" width="100" height="100" as="geometry"/>
                </mxCell>
                <mxCell id="11" value="&lt;font color=&quot;#999999&quot;&gt;Client&lt;/font&gt;" style="whiteSpace=wrap;html=1;aspect=fixed;fillColor=#FFFFFF;rounded=1;arcSize=1;strokeColor=#DDDDDD;shadow=1;verticalAlign=top;" parent="15" vertex="1">
                    <mxGeometry width="100" height="100" as="geometry"/>
                </mxCell>
                <mxCell id="2" value="React" style="shape=image;verticalLabelPosition=bottom;labelBackgroundColor=none;verticalAlign=top;aspect=fixed;imageAspect=0;image=data:image/png,iVBORw0KGgoAAAANSUhEUgAAAgAAAAIACAYAAAD0eNT6AAAABGdBTUEAALGPC/xhBQAAAAFzUkdCAK7OHOkAAAAgY0hSTQAAeiYAAICEAAD6AAAAgOgAAHUwAADqYAAAOpgAABdwnLpRPAAAIABJREFUeJztnQmYHUXV/tsVERABERREQHBFcEVBUT4FFQFxQVRARBY/FBV3hP8n4MbmCirKp/gJKGpcQNAwc6svV0mICEOS6VN3JkRZDPsqOwSy/OtUT8Jkljt36e63uu/7e573mYiQqTqn+lR3LedEESGEEEIIIYQQQgghhBBCCCGEEEIIIYQQQgghhBBCCCGEEEIIIYQQQgghhBBCCCGEEEIIIYQQQgghhBBCCCGEEEIIIYQQQgghhBBCCCGEEEIIIYQQQgghhBBCCCGEEEIIIYQQQgghhBBCCCGEEEIIIYQQQgghhBBCCCGEEEIIIYQQQgghhBBCCCGEEEIIIYQQQgghhBBCCCGEEEIIIYQQQgghhBBCCCGEEEIIIYQQQgghhBBCCCGEEEIIIYQQQgghhBBCCCGEEEIIIYQQQgghhBBCCCGEEEIIIYQQQgghhBBCCCGEEEIIIYQQQgghhBBCCCGEEEIIIYQQQkKm0XhyNCfZIBpcuFVkkq2jht3G/1TpP29c9zR0Ewlpi3nz1o7MyEarx++qsVxvPt+P5eNXPhHdREIIKZYLh57uguCbojg5IjL2e1EsF0dGbBTb25xWzigj9zn90/23lzmd6/58gvu7DowuSV4dzV68Frp7pE/QCT62O7ox+BH38+tuHJ7nfs5zutbpgZnHsix3/80t7s+J+/MF7uep7ueh/u8cGnoKunuEENI7OuHXkj1dsPuB01UuYD7W1kTfjYx91GnYBdJfRDV7eFSTl0QrVz4BbQJScvRrfXBkOzeePj720tl0421ZfuNYHna/Z67TKe7Pu/qVMUIIKQWDC9eJ6vJhF7xm+2CWV6BsL5je4TQrMskhUW30uWjTkJIwIM9zE/DHnP7odDd2DNv/OP3ajeO9uDpACAkTXb6M7dkuUN0PDZjTvwysiGJZ4ILpV/zqACHj8fv0bmz4ZfkAxuvUus1vndXlBWhzEUL6HV0ercl7/ZIlPjh2+kJgfcBvjG6JNiMBESebRCb5tBsLl8PHY0eS5e7nH9yLwM5oExJC+pF6851uAl2ID4YZBFNjL3GTwEH+zAKpNg27rj+8Z+xglOdeflEy8hf3IrAD2qyEkH4gTrZ3Qedv8MCXz8vAXU4nRY3hzdFmJhmjV/CM/ZbfU4ePs8zHrb7EnuNebjZFm5kQUkX069hfu5Ol+IBXQECN7UWRae6GNjvpEb0iqpNjnjdQwtE9buweFc2a9SS02QkhVcHYN7rJ//oAAlzxMvKPqG4/xBPYJWKWfWp6E8UOwccPZMzay3xCLUII6Rr9kojt8X3y9TSD5N9Oh/FedsDoxJ8mmboBP17QknudHQ5Au4QQUkYG7IYuiMT4QBaYNBOhZh9kOtdw0BfVNCvftfDxEZqM/ISrV4SQ9tE70bEdhQevsDXibw7wRQCHZnqsN9/vJv9FAYyHgCVzosGFz0a7ixASOibZqZonpXMLrvN9ljZSLHX7rjT1M9r/JZGuXDHnBSFkWrRQjxbcQQercqoR1YZfjnZh5RlIXjx2hx/t7xJKbnbP+MvQLiSEhIZeeTP2IXyQKrG0IFEs343M0Ppod1aOxoJnOtuezgOpPUsrb74U7U5CSCgYeW2wOfxLKbnT38fm+YDe0X1+PWth7K14v1ZExt7I7QBCyNiSqtwBD0qVlPw9qiWvQbu4tKQFpq7A+7GKkquj2fM3RruYEIJiTrJBeq0NHYyqLE3TKj+JZi9+BtrdpUGX+4396VhGxgB8WFEZuZRXBAnpR3R5WguJoINQ30gPYNl3od0ePMa+w9lrCd5ffaMz0C4nhBRNLF8LIPj0o87yX7hkTXQ1KrZnB+CfftTBaPcTQopiUN4QVaEUalll5JYobr4bPQyCIS0tzfS9OD0QmZEXoocBISRvfD107vsHISOzXODdCD0kYKRX+86E+4FSXcnzAIRUHWN/HECwoVZLbo7i5h7oYVE4tWTPdCUEbX9qtYw9Bj0sCCF5off9ebI6PBlZ4X6e5qvZVR39yjRyAsdhgNJEYHV5AXqIEEKyxpf2lfnwIEO1CsBDUa25LXqo5IbWqNfcCGg7U600gB4mhJCsMfZjAQQXaib5WgzJgejhkjk+mx+zTZZCLG5FSIWYN29tnrIumYw9xx/YLDtzR9dzfTkXbk+qE41EjcaT0UOHEJIFsRwbQFChOpZcHZnmK9HDp2s0DTJvnJRTdftR9PAhhPSKfoHFchc8oFBdSh5xOgw9jDomTo5w7V6Ktx/Vpa7hKgAhZSe2nw8gmFA9S84sxS2B2YvXSvP4o+1F9aya3R89nAgh3aJXrmL5NzyQUNlIbwkYuwV6WE1LvGAznvKvkIw0WdKakLKip8nRQaQraQU9e7e/lwxvS2iSm30q59CIm7s4f92Kt09wesCPZXw7ulNN3o4eWoSQbohlDjyAzCi5yZ94N/YjUTzyqqg2+lyfs2A8WkrXJFv7jHnGftaX1zVyufvzY/j2Q2y21AXmj4NG1WRi+0nni0fxdgHI99s/Zz9yf/6Ue+nePao3n+/P3oxHt28aw5tHlzRf58buJ9y/+8dSvBhoOwkhJWNwZDt48GgdWAZdINy1pz76FwPZywXg77i/byG8T8XrLL/njqJx3dOc/f8vADsUOG591sYr3c+T/dfx4MJ1urafvuga+YAbu8Pwfk3bX/eSrS8uhJASoall0cFjSskCn5I4D7SimbFfcX+/xfezqAAtl7uvzk1ysWcrGnZT97v/Ae9/YXZ2L5jGftlnM8yalSuf4F4m3pvWhQigr5N1XOZ9JoTkRPplEVqhlWUuwJ1U2El2XQEx8u1SLLP2PDnJde7nSwux6+O2vR7e7/zteocfswPJiwuxq1aGjOW38H5PsoNdVEj/CSEZoPuQ6KCxppbBrhT5a2lykF95wNshz8nqvkKqCprmbu733QPvb762vMqnzr5w6Om523NKG8tX4TaYqEuSV0NsQQjpEN0bRgeMx7XMBdMD0CbxpCfVLxzbx0XbJYeJyz4ameSQ3OxXs4dX9uCljgkj5zv77ZSb/Tohlq/BbbKmfb6NNgkhZCZ81T97OzxgPD4pfQ5tkkloel1/CruiLwKxnOj3lbNC74LroTd4v3Kx1XLXt99FcbJ9ZvbKCk3+BLfPal2DNgchZCbqsnMAwSKVsbVMJ6Ks0aBvZFZFa9P/xp/S7xVfSEonSHh/MpbPNfHrqN58WQYjKR90C0IL88BttVrFnTMhhHSBHlrCBwoNsHf6zHBlQPc3Y/tXvM0ylrGXRbPnb9y1XQYXPruSmf2M1KNB+4oMR1B+aDt9PYgA7Bbbo9HmIIS0Ipz78EeiTdExcfIeF2wXB2C7DCc7u8gnpumUxuiWlbRFLHvnMHLyJbanwm2X6q9oUxBCpiO9RoRfztYrYmUoXDMV2u5YPlOpCorG3hB1snyry+LG3ghvd2aSO32WPq2NUUb8cx3CzQt5xG8JEUICxH/BooOErUYt8QG7oT+EVZWDgr62Qhsn3DVJk7//HkCbe+6znuy35/S0DRIKmuAKbU9V3b4FbQpCyFQY+314gIjtkkrVEdeAF8vVAdg1iwnxfn+Pfzo0f4T+O+h2ZqPRqJa8ucCRki9aW8DneoDb9etoUxBCpiKIA1vyNbQZMseXVbZHB3QYqxf/LHUT436T+hg33+0mmIfx7etRPheCnAytkZAXxv4Ubt9YYrQZCCETSe9qY7/e/JJrsjXaFLmhKWFjOw8fhHvWMp/pbhX6Z5+qGd6uXienOVGtuS1whOSLVhKE29je42MNISQgtBAOOjjo9aqq4xMtybH+Sxpt7958pfvjx6Qq+zkHXZmRL00qI11FYhG4vYuqjUAIaZN68/3wwBAnR6DNUBj+frZN8Dbvc+m119rwy9HDoTCCOAyYHIg2AyFkPMZ+Ex4Yqrz8PxV6NsDICVElls/LJn/d9bRK7vW3IrY7wm1v7CloMxBCxhPbP4MD8tVoE8DQIkN6+wEdmPtG8u9oUN6AdjsE3X9H1/ow8he0GQgh44nlJnBQPh1tAihmaP1q5swPTFrNUXM09DOx/ArrA7kebQJCyCp80hp0cE7egzYDHC18pNUP9Soa3B9Vkx66lM8EXVyqKLTkM9IXemh0cOE6aDMQQpR45FXwAD0gz0ObIRhqyWvcS8C/4D6pjOTfbWUx7Be0iiXaJzV5CdoMhBClbt8FDQaaOpasSWPBM91LwB/hgbr8+r3fXiGPkx4+xSZtqsvb0GYghCix/SQ0GBg7iDZBkOhydZpBEF+gqWzyeQrkZC75T4ORf2B9JIeiTUAIUTRQYoPBSWgTBE3c3MMX40FPqqWR3BuZ5j5otwWNsT8G++l4tAkIIUosv4QGA2M/gjZB8GimRiNN/OQauIzYSqfzzQotb4x95n+GNgEhRDFyKTho74o2QSlo2HUj3dNGT7Lh6iLu97dJLHtjn3lu+xESBrG9BhoMBhduhTZBaUjPBRxf/vz7WU4mvi7BV7jf3wGa/hjrsybaBIQQBVumdpk/lUw6o2b3r0Z54Z4nkoedHT6IdkfpmDu6HtZ3ci/aBISQefPWBgfxJWgTlBa92x7b2+CTMG4SuTOqN9+EdkNpUfuhfKerNiwLTAiYxqJnQYO4kcvRJig1DbuNr6MAn4yLHjd2UVSXF6DNX2q0EiLSh7oKQQgBovvv2BeA2WgTlJ45yQbOlg34pFzc5D/Xv7iS3kCPmYbdFG0CQvqbwZHtwC8A56FNUAm0rK2x58In5/x1djTLPhVt7kpg5HyoL3ldkxAw6T4yMqD/CG2CyuCLCaGTOuWq03jSP0OM/BzqT9N8JdoEhPQ3cbI7NgjYb6BNUDliOapS6YP9lUf5EtqslSOW72J929wFbQJC+pu4+W5wcP8i2gSVJLYHu5erx+CTd8/jw/WBmSLzIbbHQX1bb74TbQJC+pu6fBgc4D+FNkFlMbKXs+9D8Em8a8kjUU3eizZjZdFVFaR/a8l+aBMQ0t+Y5BDsC4B8Am2CSlMbeT30vnfX48L+h0vEORPbz4N9fADaBIT0N7q8Cg32yRFoE1QenUjRE3rH4uSfO7F8Burjuv0Q2gSE9DfoLYCaPRxtgkrTaDzZF16BT+gdq8HrfjmDrgjILQBCwOgyHDTQy6FoE1Sa2J4RwGTenVgyNl90+w3r433RJiCkv9FCKtggcDDaBJUltkfDJ/Gexet/uRHb/8b6NnkP2gSE9De6DIcN8IehTVBJjLyvErkANAcA94rzIbZHYn3b3AdtAkL6Gz9RIIMArwFmTi15jbPtg/DJO7uXgId9xkqSLXX5Ative6FNQEh/o8tw0ADPJd5MaYxu6V6qboVP2tlPFnf4yockO4z9CtSnTARECJhY9gYH9hPQJqgMjQXPdDYdgU/W+Y2Vpu8jyYZYToT6syZvR5uAkP6m1nwrNqjbU9AmqARDQ09xAd3AJ+n89VdeD8wIY78PfvbfiDYBIf3NJcmrsQFdTkeboBIY+UkAk3NBE4f8HG3uShDLmVA/ailyQgiQurwAHNDPQpug9Bj7ZfikXLh4dqRnjD0X6kNjt0CbgJD+prHoWeBAfgHaBKVG91Fjuww/IRc+bpbzFHmPGJkN9eHsxc9Am4CQ/sanitV666AgYOxctAlKS334Rc6G9+AnY9TYkfuievNlaDeUltheifOfe4FbufIJaBMQQozcDwwEV6O7X0rmJBs42y2GT8JwufHDmwHdYeQ6mN+MvRvdfUKIYuyNwAB+F7r7peP4lU90wfsv+Mk3EBlbi2bNehLaLaUD+eKvLx+EkAAwYoGBYIXfhiDtE8t34JNuaDL2W2i3lIrZi9cC+2sh2gSEEEX34ZHBYHDhs9EmKA3o8s0hyySHoN1TGhrDm4P99Ve0CQghipHzocGgNvxytAlKQWx39Hnx0RNtqPI1A+S1aDeVAtN8Jdhfv0ebgBCiGPkhNBgwJ/jMNOymkbE3wCfZ4CU3R/GCzdDuCh6txIf0k2YhJIQEgLHHYIN2cgTaBEHTuO5p7iXtcvzkWhIZOxTNm7c22m1Bo1U4oT6SL6JNQAhRjByEDdpyItoEQaPZEtGTatlk7M/QbgsaPTSJ9E/N7o82ASFEqdu3gIP1uWgTBEvNHg6fTEsrORTtvmCJ5bdY3zR3QZuAEKKkGeVwwcDI39AmCJK67OBejh7CT6QllR4K1GJXZDLoLSWTbI02ASFEadh1wYH6erQJgmPAbgjN1NaW5N5U6Ha01LU+ayJZE39YEva8r/DnWgghgYDMKW/sY0wGNI4yZPpTnxn7jjE9Bm9Pa/3Z25Sk+CRAshw3duQOtAkIIeMx0oQG6YbdBm2CYIjt8QFMmjPpyMfbK4cF0J4ZJh37FaBHw0ILKEH9IQvQJiCEjCe2A+CgsDfaBEHgy/sCv87a89V3J7Vb/xm8XS3bvDyqy9sAHg2PmrwX7I+L0CYghIzHyA+gQaEuX0CbAI6xW/jlUfhk2UK6NTFV4R1dYo/lAnj7WkruigYXbgXwbFjEcizYD99Bm4AQMh6TfBo7sdifok0AJS3OcgV+kmwZuOf7A6PTceHQ090Lwj/w7Ww1zlz71Nb9TGzPxvqBib8ICQs9zIWdXOagTQAlljPhk2Nr/9zkC8jMxMUjz3H//hJ8e1vqjAI8Gi7oK4Cad4QQEhC6NIoMCv18MhieiXFG39wfDdpXtN0f/XeRtebbUnJgjh4NG2P/A7X9gDwPbQJCyHjSq2fYSnNmZCO0GQpHbz8YuQ8/IU7nE1kR1Zvv77hfvthM0IcZH4gGkhfn4NGw0aJSaLuvXPkEtBkIIRMxYrHBoc/Sg2oyFL0ShZ8MW+n4rvtn5IQA2t9CMr/vzgMY2RVqc2MXok1ACJkKY/8IDg6fQpugUNA3L2b0h5zf09ea/rfwnPMz6rQMPRo+xn4Wa283HgghAWLkZHAwPgttgsKIm+/2y+v4CXC6QC0tT/y3y9zR9fzfBe/PNFIf6HZFvxDLL7D2tt9Am4AQMhUmOQQ86cxHm6AQ9DR9LHfCJ7/pJ8X7M90frzW3jZCppmeelO6O6s3nZ9bfkIltAh5bB6FNQAiZCpPshA3G8kg0yz4VbYZc0ZoHxs6FT3rTB2hdldg3837r34nuW+uxN6fy9Sj0vIOxj4JtvSPaDISQqRhcuA785LaWwK0yugQKn+xaToST0/xm1/fv4fvXsu9fy63vIaClkbE2XuaTRRFCAsXYReAgcTDaBLlRS97sgyB8optGmiAmzxWYoaGn+C9tdD+nlXv5Nc3dcus/GnTRJr1lRAgJGPSpbWO/jzZBLsyev7HPpgef5KgZxt+t/q58FTHyQ6x95VdoExBCWmHsMdgALJeiTZA56XW4i+GTG9WmnK+qmKzG2MvAdv0S2gSEkFbEzT3AAfhBv1RcNjSLYW345VEt2dMF2o+5F5mvOv088mWW5Wr8pEZ1Ju8zLZF9VprQSJfP3bMxOLJd1FjwTPRw6xjd2kFn+mQ5ZkICpzb6XHjwrSWvQZthDfR0eF1e4AOYVjKL5SQ3yZ/j2tpwf17s/vwQ3GZU0XrQacT5Px67W/91/+JXa77V19WYqmQyEj19D7dZsgnaDISQmdB9UGSgQGQE9Fekkq39IbD0C/5kp1nuz0Oc4KmOlV63u8a9HJixSo9H+5oKehJfkyMVTSyfwdpEbiq8z4SQLjB2EBs85bxc+qX7uo3RLf1Sbl2+4Pr5M38n38gt8AmD6jPJzWM3InSL4Yt+60hXDrQoVx4Y+2tof43MzqVfhJCMMfYUcLC4ruc+6FaGfs3HcpT/Aksn+sBL1FKULHXjtJmuPskJq1cNei1aFMu/of0y9ps9P9OEkAIw8gF4ILx45DlttVWv1/m9eXt0+pWj1fXkEXj7KSpTuRcDn8ZXr+nKsX4Vq93riiGc68kjuyQhJAeM3QIeMGry3knt8oFM9vZfRukXUjPsgjoUlbO0jkGaWvo0n2e/3nzZpCuMRt4Hb2e8YLOiwhchpFeMvREbMOQXrg0HuOD1bae6D3TwIEZRJZCx/3G6JH123DOErgAY2yXocEYI6QQjv4MHMoqiqqDfoMMZIaQTjP1cAIGDoqjSS45ChzNCSCfASwNTFFURsQQwIaXCJ8YBpw6lKKrc0hiSZ4VJQkhOxHYePIBQFFVe6Q0FQkgJieU78ABCUVR5Zey30GGMENINmrwDHUAoiiqvpsrnQQgJHM2wp/W70QGEoqgSy8UQjSWEkMDxhXJ87nwzVs0sgABCUVS5JcvTqppa22D4RegwRwhZhaYO9al1/QPKtLoUReWrNIX3yS7mvHFS2mJCSI5oudF6803urfx0eIUwiqL6XBqDXCzSmJRXKWRC+p5VX/qxvQb/0FMURU2QsTdEvqiRfSM6XBJSfnxVP7+nPx/+cFMURbWvkXRrcuSF6DBKSHkwIxu5if9jPgEH9/Qpiiq79MxAbI+OLh55Djq8EhIeundmmru5B2UWT+9TFFVNyXJ/Q6nefH80NPQUdNglBEtjePNI34yNXI9/OCmKooqS3JzeJEi2RodhQopDC2voG3BsL3Jahn8QKYqiUBpbFTByUDRv3tro8ExIPuibrpFvu0F/O/6hoyiKCk63+doDgwu3QodrQrLhkuTVblCf4/RYAA8YRVFU4NJVAXuRPxdFSOnQQ32x7B2xHC9FUVT3MnKV3x7goUESPLMXP2Ps3j4z9FEURWUlI7f4vAIDdkN0mCdkTfxpfk3Nax+APygURVFVlZH7I802GC/YDB32Sb8zIM9zg/FHbvJ/BP5gUCWQ/N3pTH8Y1NhvRnoFNLafjGr2cH8zxMheft8zlv/yZ0dWyR8gHZOWZp2TbNC2eqWT36VtW9XOurxgjT5on9JcF3v5vmqfte/+GqyzhT8g62zjbYT2ExW+XMw18kP/8UVIoaQT/2luAD6MfxCoUsjYWzOZkKuOGVrfBfeb4P6iSiJZmh6yZj4Bkjc+Nz8nfqoLGfkAeviWhlg+CPcXVTLxRYDkheawNvITP8jgA50qof6MHsKlw8hfAvAbVTr5GH1G1LCboocwKTsXDj3dBaL/GTt4EsDgpmZ48ANoxwTp2Kk3n48eyqVDbRbscxfoWKMel5H7nJ+OZXZB0jkrVz5h7FDWdfCBTE2QP/zTTAsnyQneT/XmyyJ/GBPdtinb+xn0cC4txn4O778pfXp6VBt97tiBzaPSg52+eud9+LZRa8jYG3x1Vc3NQsiMGPtGN3CugA9calk60dtzo7p8IYqbe0z7JV0bfnmgmRavjGbNelLBI7g6qO3Uhng/rikdazrmpqIxuqUfq0a+6MdubEci1vzAy8jlLo7sXPAIJqVB80/rVyV6oPaj/OQt4vSLyCSfjgblDc4f67Ttu9g24H2Yqk+D9hU5jtj+wDRfGejLXaPtPjTsun5M69jWMa5jPcw+VVtGVjjb/9a/pBHiaTSenH5h2gfhA7Qv5b6W9KxFt+jpengfppCxp2Q4Svub2J4K9+eUPu7hZoeOeR376D70px7020tcnetz4mR79xD/I4AB2c/at2v/6QEfI9cH0Ic1pWdHOlnBIK3xh3Htv+B+neRne0NPfk7LguP70beSBT5JFekzGtc9zR8g42levIz9add+NPYb8PZPpbq8LcPRSpSavB3u16n19a77FNuzAmh/fyvdijmtp1VIUiLSQ36j8IFHrXoAb+jOj5pyNsCETJqMhORDLL+E+3eS5JGo1ty2u/7YJfj2U166wlS3b8l4xJJgSO/0/yQ9CBLAgKMel17j6xQjf4K3e6KM3OHz4ZN8GFz4bDfh3gn382S//6njvugtAnS7qYl+1LnhR8wdUDVq8hL3hjcMH2DUNJL/15E/42R3fJunkNYtJ/lStx+F+3lKNffoqB+xPQ7fZmoajUx7zZOUDA3KLNMbuGRB2/6cZZ/qXuYW4ds8SQ2fQIrki9o4FhOAv9eUkX9Gsxev1XY/YpvA20y18Kd9yCd5IiVl9uJnOCf+Gj6QwtftAbRhZdSw27Tl1/TKJr6946XBot32k97RPfcQz3/o2GwHM/JCeFtThfHsBy35VTR3dL2cRzTJFF9D3b2RwwdPoEpT6Z7gt0Z8aWNZjm+T/fKMfvV7wPYeeFsnt/2YAkY1GY/W6ED7ffJzdV9bRWh0ywvf1hU+s6YmQNMvXU1lHEIcCFF6rbc28voCRjXpGc37zOt9EwawfdRpMIqTI3xlw8k2m4tvo1w1o2815zq6nZPbbf22BCkWtXmaZhc/BtaQG6MzoVte+HbOmdQurW9Qk4+7eFDzMQPexpAkjzgdlsdQJlmgGf2M/BA/UAJR+gD/2U36B0aNBc9sabvYHglvr2pwZLvp25hsH4WWU12/ovRaKcFQb74pwFs9y/xYnY50HKPbqDqypW01ZtTlw74sM18Gxus0P9eQgBiwG7qBWg9gcGDlJyS5NH2LH9mobfvFySZRGJPrqdO3UeIA2jdB8r9ZDF/SA0Em03FjdTqMfBvePl+nYuGz27ZxY9GzXLs/4VcNwnvhQtivNuNHFSkIX5azz6/4rdrTr8sLurajDmp0P2K5acr83Ka5D75tk2x+hw+MBIu+/Mf2Nvh4mKi6fdektvrqhnIzvG2xHeja3o3hzR8/MwDvB05ppdItehm6pFf8cpqbNNCDASK50w3A72d2X9Ukh+D75KQpX8fj93rlani7JsrYAzKxO+md9Kovfkys+XxePelsiLHvwLfL6+BM7J5uZ5zm+npXAH0qXr4WRIttS5IjWl4zxBPhuUpP6eodaPlgR3eO20GXtPxBF3gff7VGu4z9LL5Nk9poMrU96Q3NDWDsJfhxMUE6dsdj5Dx8m+ThyAytn6n9tbZK3X4o3abrs5sExv6HNwSKJpb/cgP5frjzixtkN7g+f81f2cnXrhfA+6qlOjWHg+L3Hu3dAbRpnC9cAO029zsatatuE6XXZHeNasmeXvpn/Wf6/5X1znOMg+RMAAAgAElEQVR9+EVhvMCu8dzevXqbKM1L8hC+TXJ+rn7QGh1aIMnYG+F9Lc6m90Vxc5dc7UrG0CXiEB6kQiRzfMnQok6d6soCvM++34f69oR5q6P76m9F4gOxs6OxP06/jjvZKnP/rh6q1f9W/468XzyzIpYTAxgfa0rHcNq2Q+FtUdWS/QrxhcYs/V39c1bgAfdh8NZCbNu36JdK5Sd/f9/0F1E88qrC7au1zUNIm2zkb+7nS8dKdQbgk9VaEmzZUD1gVm++M9JT8Zq4JPu+X+v88TO/jz3VQc0QaNh109Uy+DgZN5b9GH7p2JhGP1f3Q8avri7F9uzgVmiy14O8FpwXsd0xXWqBOzmvh/OWyBcISTaB2jmE9MnpVaMr4e2Y3K4PQH0zFVpJ0V8tK/J0uftdxn4r0oktNIJZxVpDV4ZxfU5+ifWNv258nBs7t+JtkZvu8S88JEM00FT1pKl+rekdWz1IEwIhXrkLQw20a9YgfSH+E3Ri8b9bLnA/X4s2x2r8gcAAvrZDlJG90O7xaLldTURk5Hq4TfKx8x3RQPJitJmrgebWzmdJE60Rf31paOgpaBOvQZpilUVC1nig7WPBlAc1zVeGkbNhkgaiuuyANo8nxKyRaOlXd2ixRtujVxLDrO7Zq66JZs/fGG3icqP7VbG9IgBnZiiZ7yb+90XHr3wi2rzTovkF4HYKSXI62iX+FLm/cx3wxKYvSsZ+L4ibBGEeIEWO4e+gXTItGgv1sLOxC/F2ylTz/GoH6YJ0KW9WAE7M6gG82p+KLUPNeP2Sg9srEOly3pxkA6g//LZMEBnk2rSZXgGTvaE2U5+p79C2CEVlSFijLwJ6hqNSlVwn5DUhbRJi3fdulAbDo0pXMU5XKtC2C0FaXRJFWuDq5DAOkHVqN9/m06Dj3lcGDcAWeF0B80E36NZAWtW1Gllejf0U2qTlQpMqhHcFrFOn3+0G8JdKuwQU20/CbYhXArvypnnGjVwegA16fQ4uiwbkeRAb+tz7zodoG6Clh4zLiG4BG/tln20PbcPenoFH3QftzmhzlgOfktYugTut+4dNS8Se01G1rRDxRVYqf2+3tTRLHoI0B0JY99l7ktwMOyCoJ9/h/QdKM1eit7B6JS34FPb5lxn9YG8svR8KIYR76N07eSgyyU5oE2ZGpc5gdOpL+RvE5nq9Tws9ofuf/bNxNyxJSj+XCtd4WhXShELz4Dbt3hfnok0YNjW7P9xJ3ek2X00v5JP93RA39wjAtoAHVVZACnyY5m6RZhND9z8/PQhJl6q+LOM5iiw0sbpm2UkPCh5W2gOeetuBTEG6zFO+++f6lVzVuvD+YSvxdkz3Pv1d4bZOC/RUN9Pl47a9D5LmOra/h/e9cFvbG4NN29wrupwey5lwG3c+/u+o7HzRE5pnHO2cznSbv89fdWI5KQBbF6ll7qvpJYXaWKvwVTs96kTdHpmRFxZqY/19ehgL3/fiZOw3CrUxAn/Go2S3BYz8BG22sNATkmVaotN9tX55i/OBs0S+KdvDqbXZK3XvuV3J1avLPhdma+dbeL8LG8crSlu2ulM0Fsf2N3Cbtz/2l0O2GIMkTfhTjutOWk3L2APQJiucfirpefHIc4q1bT8ftCz4gJr6NoRql4XYVi4t1LYhECcH+hiNtn17Y/8ytLnCQA9FoJ3RnkZKkU0rD4z9SAD2L0DytULtWpOP4/sMVs0eXqjNY/t1eJ8LkZsM+5H68ItcvBrG278dNd+NNhcWzXSmS4FwR8yos0qb0CcLfPWuCl5NGy89nFPkkrRWC9M72uh+o2XsQ4WeB1Afl/UEeSdjOZTqogh8AiH5P7gfZtZIZQ9ptkXdfigAJ7R4kPTQkByGNlMQ+JrzAfgkN8lRhdozlhjf50Bk7GDBtj8K3ud8dWqh9gyV2P53CTLK7os2Ew4jVwXggKmle0n15jvRJgoGPamuh1fQfsnH19e5L8O1CrOlFjxB9zk0FXmjRusTGPsveJ/zsWP/HP5rhzS3xj1wv0yvK9EmwhAnuwdg/GkeIk3DmmyPNlFwhFmHPgt/F3ewc3DhOmmBqAD6HZaW+KXbolCf4/uchwYKs2FZ0DTUIT9zdfsWtImKJ7Z/gBt+ao1E8YLN0OYJkpq8NwD/ZCxZUGgGR2M/h+9zqCpwGybNKLcA3+es1e8Hy6ahMby5e/YW4f0zhfQmUF+hhXKCTMohi6Pa6HPR5gkWX562SkVqnOrytsLsp9sMIX+JoKVjq8jywZomF93nbLWkvw+VzUCcbBL5Dzy4nyZIlkaz52+MNk9x1OULeKNPDD6ajIVf/jNi5AS4r7J78OJibcf69G345NBCfVKtw5jHFWq7MpKuBIR3/sPYz6JNUxyxvQJu8DWML9fDapaXDX1JCv9kbTs+X+Hz7xdqOzsK73foMtIs1CdpDYbyZ7rUFVWuXraHsVtEwdU4kb+jzVIMfgIJ6IHTe8hFTwRlJ9zzGx34Xc4r2GY7wvtcGhVcLKjMJcgfH899to/cI4P2FVFIlTd1TtTVicpj5BNwY483upEPoE1SOtKrNXj/dS1Z6q81Fkksp+P7XRIZ+71CfZNecV0K73cv6suT5D2ieWhC+hiNkyPQJsmfWC7AG3qV5CS0OUqJ1m8oRwbHqWXkB4Xaa2joKVEZS13j/HOLP3BaJDom0P3uXqP+mSSdY+wpAfhvbNzbP6LNkS/pxBFGSlnNF62BmXSHST4N92FXftdiIckmhdoqbu4C73fZZJKdCvWRnsKO5V54v7vTkYXaqkqk6ejnB+DDNIVzpV/kNLkO2siplkW15DVoc5SauaPruZeo/wTgy05V/Elp/Z34fpdMcizAT8fj+92h9Bls2HULt1WVMPLaSOcEtC9TvRRtjvzQvPp4A6/0ee1J78TyHbgvOwuWt0KCZWwb8L6XTgVf0VR0bOgYgfe9ozH9rcLtVEVi+S7cl6q6/SjaFPlh7PfhBtZlPjO0PtoUlaAxumUUzptzG8FSPlG8ja57Gqv+deMr+1Ch9RlWEdIh5Zlt9FhUbz6/cBtVkTnJBs7398F9qh9VlSWIpBs8+JcpRn6H92lbuqbQLHOrSK8bofteTtWGX164v/yBTVkM73tbkt8Wbp8qo6spaJ8WXRmzUNBpUPVL7OKR56DNUCmMfSP8oWlHtWQ/iH3096L7Xl5hSqWWxWd12Rlin6qiOWpieQTs1yVoM+SDP20JXi42cj7aDJXEyD/gwbC1roCdrjX2KwH0v6QCHARU0ttKf8f3v6X6tIxszhh7IdSvuq1TyXoO/u0K/NBoLnaSPTW7P9y3rYRMkmLsOfD+l1dnw/ymYwbf/1Zj+kMw21QZTcaD9m0lV6n12h3asMz3nw+6b4re3plWcjHUNlqfHW6DsgrtO/f74TaYQlo1kTlM8kEPVaL9W3Qq7EIwsiv4obkVbYJKY+wx+AdnomR5VJcdwHa5DG+HksrYuVDf6djRMYS2w2S7fBlql6qDztpZb74JbYLsiZt7YB8cWYA2QaXRazSxfQAeHNcUbgl5FbFNArBDOWXsQrT7AtzCeTAyIxuhzVJpNEss0sc1eTvaBNkTJ+/BBhOZjTZB5THykwAC5JhkaWSSrdEmcW25Fm+L0uoatPvSJWH4yfDxOgNtksoD3/ppvhttguxBvwCg9xP7gVjODCBArvI3XwDKL/wLgE92FdALgLE/Rpuk8sDP7VTyBQC8BRDCcmKVGbAbRqFtAejyLRr0cmKpFcC2nbHn4u2whrgFkDfobbtKbgGgDwHG9ja0CSoNDwFOTSxz8HYoqYxcCvVduIcAj4HaperwEGAOhHAN0Ngt0GaoJLwGOD169gRug9Lqz1DfwfeCpxGvAeYHrwHmRG30uXjD2v9Gm6GSGHtAAL6dXrXmW4G2+Sm8/2WVHipFUUveDO9/yzFt94fZpsoEUQwq2QRthuzR9IboVMCxXIA2QyUJPxXwlbBUwLH9fAD9L6nkMxCflSEVsLFDENtUndheBPbrY9HxK5+INkM+wJeJ5RG/EkGyg8WAWlNL9oT3vbRq7gHyWTmKAQ3KGyD2qSppMaClYL9WtBiQEouBPzSxPRVthkoR298H4NOZZeSfkH1TvYqI7ntZpVfwisafZ3FjBd339sb07wq3T5WJ5Tt4n1a7HPD38AaW+3zWOtI76YEZ8LZORzqycBuly8k3B9D3kkluKtxXSmw/ie9721oWDS7cCmKnqqHXmHVuQPvUyLfRpsiPWA6FGzgNLt9Fm6IShPDG3NHDZW+NGnZdgJ1+Ce97+VR8GmcdGzpG8H3vZEx/q3A7VZHYngb3papuP4o2RX7Uhl8ON7CXLI9MshPaHKVm7uh6zpb34H3ZsY4v3Fb6UOP7XS7V5cOF+8nICfB+dyy5N5q9+BmF26pKxHbHKJSVzJq8BG2O/EiXQ++EGzlVwru0PWCSTwfgw86ly3yDC59dqK0aw5u737sC3vfSyL2gF10TXcdECEvA3emThdqqSsyyT3XjTQLwoep22G2lwjByfgCGTmXsKWhzlJL0RW4x3H9d+11+ULjNYtuA97s0krhw/+iYgPe72/FsF1V/4sgJ3UJB++9x/QFtjvypyccDMPTYg+O+yphQo3PiZHe473qSLI3q8oJibWYPxve7JCp6+V/HAv76V29CJrsqK3FyINxva6oPEtXpPfyQlkONPOz0WrRZSoWxf4T7rWe/218XarPBheu4cXY/vN+hS21U9EHN2P4G3u/e7cYrgZ2g6Xa1sBLab6sF2PaCYeRyvMHHPzz2Bn+ljcyMJsvQbFVon/UeMFdElySvLtZ29gx4v0OXkR8W6hMdAyF9kHRtN/sok5y1iV6d1GumaJ+t6b/L0GYpDmM/Bzf4ZF0bDcjz0KYJnlKelJ5OBe8160umBmp4v0OVLC38GdQxAO93ZjquUNuVEf8MynUB+Gri2D8KbZriaCx6lk/LCzf6BPkMYO4Ll0xNo/FkfDrnjFV07e3YngXvc6gquviPse+A9zlTua9a3myaHn8bx/4L76dJflsazZ6/Mdo8xaJ7VnDDTxWE7CKuBExDTd4L90/2D9+CQotvVOHAWT5+eKTQ1L/qc/U9vN9Zq/nuwmxYJrQUfLg3l36DNk/x6KlVvOGnC0Y3Rab5SrSJgsPYGt43OUjLGRdrx2/C+xyajHy1YB+EXcK6ew0Uascy4A/8BZyO28iuaBNh0JKWaONPrwecY/ZCmygYGnabShyWmvoBvC6avXitwmw5b97a7vdeA+93KNKtt8Z1TyvM/pr8Jcil4ExsuSIyIy8szJaho1t8mi0R7ZfpdQXaRDiMfCAAB7R4mOxjPm8BKV/e/45V8CGcevOd+D4HosLPYThfo/ucp1gfICUt7BRGit9pfSXvQ5sJx6xZT/J77mgnzKyz/T3ufsV/scpdAfghzwfxjsJzqsf2R/B+wyWnF2pz9bH6Gt7vXG16Z6ErKqHhc27Yc/F+mEFGbKHnj4KkPAfLRn0xo36kf4rZfL1Qu+q2Q9jbYHnrikK3XhRjvxFAv/OXkYMKtWsoDCQvDii3/wySvdHmwpPmlf873hlt6QFIlTI0xs4NwPbF+LfobFz+VkApqyr2JmPvLryWvfpWfYzueyGSOYXaNgT0pacs/tWYSsbQ0ryaChHtlLadJ7P65t5mffhFcHsX69ti76J7G9u3BJkXIz8bPxzVkjcXbmf1Lbrvxdl4RVRrblu4jRGklRzDvFY+pdxcd0nzdWizhUUs/4t3TCcPmPuCMfZjaLPljpGT4bYuVssgNblNc59KpFhux76x3bd4+468sE/s+7h0u6Pq1Jvvj7SMLtrWnekMtNnCY8BuWEJHVns1QA9phpYzuxj9HmLvmj28slct02fF9U0Og9hWfYruf+H2tjf4Z7iKxMkmpfSpkVuixoJnos0XJqFfC5xWcmekpRyrdqKzX6+q+eXTkddDbK4lSitZL0CWwkpvqy+r/GLVSkVfscwbfaHxJeVLeitJD72TFsTyS7iTupbMjwblDWgTZkap9tUylpFLYXbXLJlG7oPbIDs94PPuozD2kgBsgFJ10sxq2fbQKsl2IiM/R5swfHR5JLZL4M7q3skrnP7PL1GVGTOyUV8dTJtKtWRPmP3TMrXXwW3Qu66BptVWH+JtgJMeuJyTbACzfxY07KaR5mIp8ypOmm202DwjpaUuO1dgGfQeN4EeW9oEQsZ+KgAbopVA91A1cBs5PwA7dKvfR2ZofZj9/BkW50O8HbAy8gmYD3qhYdd1bf+fwFP5tiFZylP/nVKVdJ166EMfwLKV6dTtDLTtQhD6pofmyTDJp6Oy3G9Ox/z97ueRULsp6ju0LcLQlWhXdERaq+FTTrcGYLvexXTyXWLsr+HOy0pafEQrkJXhoOCgfQXcXqFI08aGsISq5UzLsRrwhyDKaeutosqn/O1AZchiqrFRE63F9lq4vbLT2Wizlpc0B31ZsgS2q8T16YNBX88x9vsB2CkcGfkB2iWr0T1tI024TSZJ068290CbZzVGfoi3SUiS76JdMi3+ZL/d3+fGh9spQ2m2v36uyZAJjUXP8uVC0c7MXtf6bY7QBoguv5UxH0O+Wua+THZAu2Y1afrsvSPNpY+2jbHDPgVrSC+0gyPb9V3Sn5l1W3DbkH6p342dchSE61TX+gyFJAM0M1t1l/OW+P2uC4eejjazRzPS4W0Sov7qJ96Q8OcD7Dvcy8Bv/WnvomyR/q7f+DvmQdpE/hbAeAlPRvZCu8ejsU4/fjRREdom+eh2n3mSZEgteU35T4O21G3uAf1q4cVoJhLCuYv0us+V8HZMknwQ6ptW6PVZf+hNjPv5UA79f9D9vYNptkLgyf6Z0KVk+DiZpCvDuMImv4L6xhdjkq9FVV5hNPY/0GuvlabefJMPRGgn5/uQLh1LhrRj4fbVK4shnDZPv+BeGtwyrn6xlOFap24rxfJfY6VvB/wd5I4mIFk+loNgINISyUZ2Lbxsbzf4a2P2Rvg4WXPMPJaO5QBWJfR2BmKlUa/AGTkvjW0B+CQ/PeCvsJMcMc3dosq/BKyS/D2q2w8VtnenvwveZ9/vQ1NfB3iQy9hvFuKLrNEDtXq7oy5vSwuoyGFOnxnTYf6f+f9PdvD/bhkJsXCVjmFFxzS6Lapasl8hvkiv8h3g+v8PeJ+L8fP9/kWZFICuBFQrVeoMkpudTnJfONvkalcjf8L31b3crcqY5Q+A2rsDaNN4XzzC/b0AGUheHNwXpo5dHcOKjul8tmY6bJOcn6sffNVF9yKm+U/QfS0uJtxbqRTwpcAkO4U3OeT+8OoybsMXjMn6K03vugeR+nfCPqWxn8W3aZIf6sEdfutn/K0IfS4CGBtrjBM3dsfjl8HR7XLPeNbV6DQWpff3/xrGWYdCfaxzUPHbtSRKbwdornH0IEANPF1e1GXdLDDJIfA+qSZWL/PXEuVqeLsmSgMeCYPYHgwfD5PkxqyO3fH4GxvodunYtR/Nxu4jr3J/34/8wTd0nzA+/nek5zsIEC1ao5Xb4IMBKE0MY+SEnrYI9PQ4uh+x3DTlffK6fRe+bZPaeufq5V2CwxetCvFUuew9qa2+NoFu54Hbprc5ukWzPPorfHIVvB9Y/0oQGS9JtOrU82/xgwL9YGslQnuZ+/MnO0pCoZULNdkNuv2xPXX6NkocQPsm2Nv+LIvhS3pAS6yix8EkubE6bXvtt+Dt05sJncaHtDjYvL5b4p9aA0Ffhe1L0uxoJwYwOMKQv34kF7ufH/F50VuhhVvQ7VVpBrdp25hsH4XxkjLOxhoMm7tkPZRJm9SSNwc4IS3zY3XaNg+/PIA2qloXa9KYkW6tDAT33CFl7PeCynpJJuD3skM4zBaQ0pcB46sSxgs2m2wzOxffRrlqRt/Gcia8nZPb3Zy010vyJ01ZPQr3/yS5MToTsSwIoJ1zJrfLxQYfIyQOLgcHXDqnjF1PJoHjD6fIYvygCVSrzgzoIUrdxwrjK+roGf2qy5axvSeAtk6Q/L8CRjUZT2yPw/t90nN1X9Swm87cdjk2gLauiBqjW7pnaquxtLxzfQIodLtClCbF0mRGpETMHV3PXylDD57QFUqNhXYPMNblC/C2TrKhfSj3HA3kcdK75sXVPmhXOjbbodbcFt5WP24DefZDlrHn+rmElBRfbUruhw8kqsVD1sby/yrSDGMhVg9rMDdAAaRnfQI8ECr/7ChdsrEL4W2mWvhTkzbJUTmOZFIY9eEX8YELWXJsR/6Mk93xbZ5CeuCS5Eso+SomqblHZ/2wX8G3mZpSRmzLA8mkhGi2Kk2cE8Z+NzVe9ebLOvZnGGmLJ0jujGbP3ziH0UsUfwZE7sL7eYJ0LHZKOLcBqNXyZyBO89fKSUXRnM2xHcEPNspLK+x1g0m2DnIfWPcMST4EeaZHHvF7+l31xy7Bt5/y0i0craBJ+gCtrqenzkMrHtKPMvanXfsxLXeL78NE1ZI9MxytRNEU0Wi/Tq2vd90nTSSFb39/y9hHffGiMpS7Jhmjy3BGLocPwv7Wvl37L93WuT6APqwpbdPgwnUyHKn9jdawD7Hmh65e9eJnX5Y5gH70rWS+vzJO+hjN6pRWnHsAPyD7Uc09fIDvFiMfwPdhSk2f1ph0Rgjpc6eSjr1u8S81buyj+9CP8rfC5Chm9COPU28+3wWaX/OQIETLfHGN2J49lpTkjVHDrtu278IsBftYZJqvzHHE9gdqwzCz0jXa7oPPSdLcxY/tdIxLxPS6gGdSa6XIeW48bZHjiCWlxiQ7uQf07/DB2vfyJ3JH04Nf8iW/r65Zy6a6a++3coKcJK7kV0YPpKtzQwH4cU3pWNMxNxEdmzpGdazqmE0PLY4yw14A0iJpzOZH2kbLeYa479j3kqVjqYxn+XTGuo+q1wi1Ljm8bVNIt5dIdxj7Obj/ph6Dp0e10edGprlb+lUvZ/pUupoKGN42aoKW+GRwTNJFOkbvgxp7jHvA7w1gIFMtFeiNDt1v1O0l0hlqs2DP5QQ61qjx0pohR/NOP+kdXw9bfsgqg1RXMvIX9BAuHWoztN+o8snnBpHTmZCLZE/6InBymic6gMFOlUe9nBjvN2L5INxfVMmkqzJyZtQY3hw9fEnV4YsA1amMvTWak2yAHrrBY4bWd4H8Jri/qJKIEz9BoYPOyA+4NUC1J71d4oJVLN9xOjHSPUqTfNq9HHwsqiX7Raa5jz9Y5g+X2R2jS5JXe/liVpr62EnrzeuLRLvqJcOZ/red/K6LR56zup3a5lXt176s6pf20ffV9Vn7nmbkPHHMJmfyBg7VllYt9ccLNsswohPSBToItYgEyw5TFEXlJ71pYez3OfGT8Ji9+BlpIpsA09NSFEWVVnKzv/Y7YDdEh3lCWnP8yif6PAJ6Nxj+4FAURZVUmghK7/E3Gk9Gh3VCOkf3QI09J9BMdRRFUYHJZ068yJduJ6QS+FoD/ubArfgHjKIoKjAZucVN/icxVz+pLj6/uZ6G1lS2XBWgKKqfpV/7YnxK76Ghp6DDMyHFkd4eONq9DFyHfxApiqKKktzkV0S1eBIhfY0eGnx8VeBR/MNJURSVuZat/trnoT5CpkCvufgkKb662IoAHlqKoqjupdU7fWEeuyk6vBJSHvQwTJpX4Cr4Q0xRFNWu0pLdJ0S15rboMEpI+dGa9/pAGfsv+MNNURQ1UcbeEPmMqPaN6HBJSDVZufIJ/gHTdJjMOEhRFFJ6gNnHIheTNDYRQgpEVwb8TQKeGaAoqgCly/snc9InJCQ02ZCeGdCTtrxNQFFUJpLlYyl5T/BVHgkhgTN7/sbuwf0SPnhQFFVeuRiisYQQUjL0vi08gFAUVVoZeR86jBFCuiGW78IDCEVR5ZWRb6PDGCGkG2L5OzyAUBRVXhl7GTqMEUI6ZfbitdwLwCPwAEJRVInlYojGEkJIiajLzvjgQVFU6XVJ83XocEYI6YTYfh4eOCiKKr+M/Sw6nBFCOiG2v4cHDoqiyi+tUkoIKRFabxsaOOQX7svhAH+KOJbY6S54IKOoMsjYu91zU/fPjj5D+ixh27QEHc4IIe3SGN0SHsTi5rsntas2+lwXzPaO0tTF54ylFGX6Yqp/5Sd7OzfyRXTkIJ/ae2J63Zq8F97OxvDmRYUvQkgvxPJBeMC4eOQ5bbXVjGwUmeZuLvh90bX7l07zXUB8CN5+ispU8ogb1wudfu30ZTepvz2Kk03aekb0WUK3X5OKEUJKQGxPBQeMa3vug64W6ItBWtvgzLFiR/fBAyFFtZQsHVvZmpXmzncTp37Vz5r1pJ6eB3jlTzmx52eaEFIAxg6Cg8WvcuubFjzSrydjP+f0UxcYL8Wfd6D6SrptZeyN7uff3M+fRXrjxth3+K23vKrj6coBts+zc+kXISRjYnsbOEgeWXifZ9mnRibZOt1OsB9Ly5XqV5gdcu15ED5pUCWT+5KP7TW+sqauQOm5Ff2avyR5ddSw6xY+vk3yabA9bi68z4SQDvEH7cDBU4NkSOjyq36d1ZpvjWr2cPdS8A3XzrPT2wl2NOILQv9Jt5P8Ur0ddD9/7pfrYznU/dzV/bMtouNXPhE9bNcgtjvCbdbumQVCCIh6853gQPFgNDT0FLQZOmZOskE0OLJdaj85LJ0Q7FlOA+5/X40PvlRn8j4b8D5cPbnbd/j9+NmLn4Eebh3jV7jAh2N1640QEjCxHAsNErovWjV0XzeWi/GTGtWenK/y2otHkl4XRNr2aLQJCCGt0H1vbPD9LtoEuTB7/sY8bFgCGXtr1LCboodLLsRyOta2ch7aBISQVsSyGBwkDkKbIDdqyZtdH5fBJ7npbX+5XyrOC93awX+FtpAs94dAq4pJDgHbeARtAkLIdOjpZA2C0CCRbI82Q67E9uv4ia6FjP1+jn0/Dd6/lpKv5db3EIhHXgW28bLowqGno81ACJkKk+wEDsCPlPIAYCc0Gk92/ZyDn+xaKI+sbaB1pqwAABPGSURBVPp3ovvVSpoPQn1TZWYvXsu94D0KtvWOaDMQQqZCTzpDg7AdQpugEDQveix3wie96SfD+6OavCSz/taa27r+3gvv1/Tj7m6fIKof0HTCWFt/BG0CQshUaPIbbDA+C22CwjDNfYIuZGTERnNH1+u5n/p36N+F7s/0/VwR1e27MvBoOUBXBjT2m2gTEEKmwtg/ggPyJ9EmKBT0qewZJRf0lNBGr9IZ+R2+Hy0npPzOPIRILJ/B2ltmoU1ACJkK+Jdacxe0CQpF92S1eiF6EmwdsE/oun9Gvgpvf+u+XeV90E9opkKoze0w2gSEkInol56Rh7HBYWQjtBkKp2G3CXt/XFZEtWS/jvsVJ+8JfIvj/qg+/KIcPBo2mo4Xanf7UHBpkgnpewYXbgUOyHegTQDD2APgE+JMk6VpvrL9/rh/N7YPwNvdSnX7oRw9GjZ66BFp+wF5HtoEhJDxaJ5z7CRzKdoEUGL7I/ik2FJyU1uBOy0mtQTf3pZj7QcFeDRcNOET0v5aVIsQEhDocqHG/hRtAijBZ8lTyfyWpWw1yUtsr8C3s9U4yznbYRlA3wSoycfRJiCEjMfID6FBoS5fQJsAjn5hx/Z2+CTZegL9iy+PPBHd19VbA+j2tZTc5cs69zvGHgP2QzXrfRBSWtLSp8iJZS+0CYIgTnaPQq4X4H1lvzep3frP0O1qrWWVzvPfCXpAE+uLi9AmIISMRwt1IIOCnoYnKUb+J4AJcyYdubq9sRwWQHtmkBwL9GhYxPalUF9oNkJCSEDE9h5gQHis8nnYO8Evp9s/4yfNGXymB0dTPQZvT2td5JMSkZQ0/wSu6Fc/3/ghJDh8FUDkZCLXo00QHHOSDZxtrg1g8mwhzV8QcA6DVNd4W5I10VsduOd9RTRv3tpoExBClIHkxdAgbeRvaBMESV12cPZ5MIBJtJzyia1GXoV2Y5CgrwLW5QVoExBCFD0cBQ3U9ly0CYIlTg6ET6RllUkOQbsvWGL5LdQ3teTNaBMQQhQjB2EDNSuEtcTYn8En07Kp3/NKzERsT4X6p2b3R5uAEKLoCWlowE6OQJsgaHySILkUPqmWR/P6rshPpxj7KayP5EtoExBCFHga2uYeaBMET8Nu6oL2DQFMroFLbo7iBZuh3RU8prkP2FenoU1ACFGMnA8NBoMj26FNUAqMvBZesTFkaaW5WvIatJtKQVqwCemv36NNQAhRjL0MGgxmz98YbYLSEHrlQKS4r9w+ukqC9BVv/hASCEaauGAgy6fMLU+mB32AK0QZORntllLhkwEh/WWH0SYghCjIpCCx3InufukoQ6bAYjXAl8guMHIf7gWAyb8ICQNssplRdPdLyezFz8Cu3AQiYxdFjQXPRLujlGiWRJzv7kF3nxCiV8ygQVzmoE1QWurDL3IT4H/gkzBu7Gga4pei3VBajPwD6LvlfiWLEAJED+Ahg7jeQCDdU5e3RaGXD85rAqkle6LNX2qM/AX77A+tjzYBIf2NluHFBvOz0CYoPZpUBT4hF6y6fAFt9tKjKbihLwB2C7QJCOlv9N40NJjL6WgTVAJjfwyflIsTXxqzIJYzsX5MtkebgJD+Bl4IiNe3MsGnC7a1ACbnvNWIZtmnos1dCYz9HtaXzV3QJiCkv4llb/ALwAloE1QGPQ1f5ZsBRiz3jTMklhOh/qzJ29EmIKS/iZP3YAM7i4JkSmN0S/dldyt8ss5+8r+DNeQzxtivQH1ab74TbQJC+hsj78MGdvsptAkqR3quA5nbIesx8lBUG3k92qyVQw9SQv0qe6FNQEh/U0v2wwZ4OQxtgkriX+xkOXzy7n2SWBHV7YfQ5qwksT0S69vmPmgTENLfxPJBcJA/GG2CyhLbo+ETeO8vAF9Em7GyxPa/sf5N3oM2ASH9Dby6nByKNkGlie0Z8Em868nf/gxtvkpj5BNgH++LNgEh/U1dPgwNAjV7ONoElabReLKbSAfhk3nn4nW/vNHzN9BnP9kPbQJC+htjP4IN9MkRaBNUHr1vjZ/QOxTviOdOLJ+B+phnOwgBY5JDwMH+SLQJKo1OpGUsGOTbzJeAXInt57F+Tg5Em4CQ/ga9BcBrgPmhSZ70Ch16Mu9a8oi/zUDyAV1DglsAhICJm+/GvgDwlHcu1O1H3eT/GH4S73V8+D4cjDZnJYntcVDfMhEQIWDiZHdwgP8m2gSVI5aj/P159OSd2RhxfWHK6OxhLQBC+hyT7AQO8GegTVAZVq58ggvqp8An7Px0WnT8yieizVwZjPwf1J+m+Uq0CQjpbwZHtsMGATkPbYJKMHvxWu7L/1cBTNI5jxd7ru8r6R0j50N9WWtuizYBIf3N4MKtsEFdLkaboPQM2A2dLf8Kn5yLewm4LJo9f2O02UsPesw07KZoExDS3zQWPQsbzOVytAlKjX5FxbIYPikXLrnaTSDboM1faoxdCPXh3NH10CYgpL+ZN29tcDBfgjZBaanLzs5+t+MnY9hLwF1RLXkz2g2lJZY7Yb7Tg508z0FIAOh9a1wgXxYNDT0FbYLS4Ws4QP0WiJwNanZ/tDtKh359Y313D9oEhBAlttdAg4FJtkaboDT4k/7y1Upd8+t5/HhbHO9tQ9qjNvxysM+aaBMQQhQjfwMHg13RJigF6VfbH+ATbrj6c2SG1ke7qRTU7bvAvhpAm4AQosTyS3AwOBhtguCpD7/I2Wk0gEk2bOmXpRl5IdpdwYOuBMhSz4QEQiwngYPBKWgTBI2mTC1jQR/YeJL7fIprMj1GfgL203FoExBCFCOfwAZsW0ObIEh0Tzu2R7sXtOXwSbVsStMHn8yT5tMQ2yuh/tFaFYSQAIDvB8qdaBMEx5xkA2eXC+ATadll7B+jxoJnot0ZFHrrxsjDUL/U5W1oMxBCFM3JjQ7U9ebz0WYIhlrymgh9M6NSkn/7nAkkZdC+Au6TgeTFaDMQQpQ0lSw4SCfvQZsBji751+UL7qv1Ubw/qiZZ6uz6OV4VjLQA2CFQX+j2zODCddBmIISswtgbwEHhB2gTQDEjG0V6jQ0+UVZcxl7obd3PoItGGbkObQJCyHjgk48sRpsARr35JvgLWH9pibP3G9Fuh6CHIo3cAbb/n9FmIISMx9hvwANzv2UEbFz3NH9SXdMho23fd/I3K07ru9LCsd0Rbnsd84SQgKg33w8PDHFyBNoMhRGPvMpNQoK3ed8rieqyA3o4FIbev4fbPDkQbQZCyHh8WVlwYDBSR5shdxqNJ0fp3f6lcHv35iu9Z3+C70vZ6xLooUvty6xZT0IPj9wxYvH2ZqZGQsIi3Ru8Hz+pVHgboN58mevjP+ABuHcti2r28NX9MvZjUTW2MeZV+npabeT1cBtrRkvexCAkQIy9DB4gYvka2gyZk+71n1CN8r2yNKol+03qo2nuA08uk80E9ajfo1afVQ1jfwq3bywGbQZCyFQY+z18gLBL/DJ5VYiT3d2E8s8A7JrB5Cj3RbXmW6ftq2nuBl9FykxytdN/FThS8kUrSfoaCXC7Vu8Fn5BKoAVU4AFCJ5rkELQpesYnV5IzS78//njgvsv5ZacZ+51mMbwd396sxqLMigYXPruAEZMvQRz+8+OoOi9VhFSKdNLCF54xcn1pr2fNsk/1GeeMvRtux+y0pKO98Zq8pFp5DdzLTyxH+Rz6ZcQnmZJ74XbULaJ589ZGm4MQMh2xLIAHCh8s7KfQpuiY2O7r2v0vuO2y1Wg0IM/r2BZa28HYRQG0P0PJ4lKWGTb2W3jbeTXQpiCEtCKWEwMIFCv9V1djeHO0OdrCJ1eROXibZe6DOT2lzZ09f+MwDpZmrr9GlySvznAE5Ycv9BXKlVP5EtochJBW6D4vPFCsDhhx0PXcNbhqudnK7POPk5HzMtmG0dP0sf0NvD/Zj83lzka/i+Jk+wxGUj5cOPT0SFdw4LYak24NEUICRifckA5xaXW80NCvPyN/quTEn+rrmd7V1r/L2G8G0K/slY6BP/gSu6ERy//C7bPaTvZfaHMQQtrB2J/BA8ZquS+tunwYbRKPFu3RQiaVnfj9UvHBudlPb3dUtdSxHxNygRurO+dmv04IobbHmvb5NtokhJB20Lve6ICxppa5gHYAxBZpEp+D3O9fGIAdcgzQemuhgCtadfsWnw0O3d9cJfN9dkRUzXu9aw+3wUSNvApiC0JIh2hO9FhuxgeNNYLqchdUT/HX7IpAl3SN/b773ffg+567rik0BW5sX+prwuP7nfeYvcufwB8c2a4QuzYWPSs9l4Du9ySNFtJ/QkhGhJEVcLL0S9zIa3PpczoxfbV619daah4k0U2cbOImyL8H0P+CJOLG1v9EDbtN5rb0ZyzkfU634Ps5hYz9SuZ9JoTkiBauQQeO1gHVtExL2w5zkg3Gsh+e5oJnE9+nwm14JjThkv7uoM6bFGb3BX5PvJbs6VP0doumzK7Z/SMtaQzv0zQy9rEoXrBZhqOGEFIIRi6FB5AZA4x+9civ/AGzS5qv87kDxm8T6HaGTvT65RXL3u7f/2I66cj8ILIeQiSPrFHND02cHBHOXfWix6+bIH2FSE0b7TNIviMaXLiVH7Pjr8BqBj3953rIUJNk6S2UcmxP/QE4sgghXZN+XaADSLeB9T/9O8G3tMuNvixsaOjEFty5kwCUviAEUMSnWyW7o4cWIaQbNPd5LP/GBxEqExk7N7p45DnoYTUtmjlQ08Wi7URlNd6GM80nQQgpGGM/Cw8kVAaSMwu7QdELuq9t5GS8vaieVbcfQg8nQkgvNOy6bvK4Ex5MqO6kFdiM/Qh6GHVMLIf6swpo+1Fdjjv7L3/+hhBScoz9MjygUN1oNKrLDujh0zX+JopIAHakOpUmzyKEVIC0oMsSeFChOgjA9hxYJros0dPvek0TbU+qEyVBF/EihHRILIcFEFioGSX3+tsbVSO2+1Y/hXBFVG++Ez1cCCFZovt5Rq6CBxeqla7MJdNcKNSbz480cyHeztS0kovRw4QQkge15DWRFuaBBxlqDaXVCU8rxSn/XklvCZzAHA8BytiHIpNsjR4ihJC8iO2P4IGGGh90b4zq8jb0sCgczZgXy01w+1PjdTR6WBBC8kQPlsWyOIBgQxmZFQ3YDdFDAoYZWj9NoetXQPD+6G9d4ROHEUIqjlbjM/bRAIJOn0pujur2XehhEAw1eXvEWyo4Gbk/qjW3RQ8DQkhR+H3YAIJPP8l/6foKfs9Auz84dDVAizxxNQAxLnnnn5C+Qu/5xvYiePDpFxm5PjLN3dBuDx49D8H6FQVKTke7nBCCIP3qWoQPQpXWMjf5/8CnZCbtoSsksT2DNwVyV4P7/oT0M2bkhS4Q3B5AMKqgZE40aF+BdnFpiUdeFTFvQF4aiRqLnoV2MSEETZxszyxtWUpu9vuqLKXaO2pDtaWRW/B+rYiMvcEnZSKEEE/dvsUFhwfhwanUkqXu56nR3NH10O6sHH5bQL7D2ys9Sl+kBpIXo91JCAmNuLmLz0WPDlJllJG6r35H8sVvWcnFcH+XUvJvbz9CCJmSS5qvc4HiLnywKo2u8FntSLHUkj1Z26ITydVunG6BdhshJHS0II0eEoIHrYBlxLov/vdznx+MXq2MZQF8PIQsI5dGs+dvjHYVIaQsNBY8030xDMKDV3gadQH1A6yXHhDqC2MPcH75ZwDjIzT9yBdgIoSQjkhLCP+PC66PBRDI0LrG2eEj3iYkTHSii+VQn3QJP17QusfZ4oNolxBCyo5JdnIB5doAglrxMnau+7kvv6JKhCa30cnPyOXw8QORzOE1P0JIdsybt/ZYHfel+ACX+6T/qK/UV5ed0WYnPXJJ8mrnz3P64vqgz+UhR3GVihCSD5o0KLZ/hQe7XAKo3OGC6Dej2uhz0WYmGTMgz3P+PbmaN1xkuX/JadhN0WYmhPQDcXMPF3jm44NfBsEzFuO+9j/sVzlItRlcuI73tZHZFTnbcpF/KSeEkELxaVqb+7hg+rcAAmGnE/8CNwF8OWoMb442IwGhV+Nie6Q/51GuMsTL/BaV5uwghBA4fq9Vfu50XwABcqoJXyvLXZFO+nYbtLlIYDRGt3Rj4xifXCjUlwFN42vk29Hgwq3Q5iKEkMlcOPT0qGb3j/zSJLq2gNzs9KsoTg5kIhTSNrqXXrcfdWPnt24c3Yad9O3drh2/jOrNd/ImCiGkPOieuj8rYE8b+/rO8SS23k7wZxLO8sGbX/kkK2ryEvdSe7gbX79wY3g45xsFD/rMfbGc5Gtz8EQ/IaQS6AvBoLzBB1NdykxXCZK0fG47B7L8Ce5Rf+ZAtxti+X/+vndddvB3vwkpgtmL1xq7XniAG4/HjV0znOu0KPIJeNp4WTX2xrEX1j/4yV5fWvXv5DgmhPQlc5INojjZJDLJ1qsVL9jM/3MGRlIWZtmn+jGrB0zHj2XdhjJD66ObRwghhBBCCCGEEEIIIYQQQgghhBBCCCGEEEIIIYQQQgghhBBCCCGEEEIIIYQQQgghhBBCCCGEEEIIIYQQQgghhBBCCCGEEEIIIYQQQgghhBBCCCGEEEIIIYQQQgghhBBCCCGEEEIIIYQQQgghhBBCCCGEEEIIIYQQQgghhBBCCCGEEEIIIYQQQgghhBBCCCGEEEIIIYQQQgghhBBCCCGEEEIIIYQQQgghhBBCCCGEEEIIIYQQQgghhBBCCCGEEEIIIYQQQgghhBBCCCGEEEIIIYQQQgghhBBCCCGEEEIIIYQQQgghhBBCCCGEEEIIIYQQQgghhBBCCCGEkJn4/1lhdnw2vs/qAAAAAElFTkSuQmCC;imageBackground=none;imageBorder=none;fontColor=#00BED4;fontStyle=1" parent="15" vertex="1">
                    <mxGeometry x="30" y="30" width="40" height="40" as="geometry"/>
                </mxCell>
                <mxCell id="16" value="" style="group" parent="1" vertex="1" connectable="0">
                    <mxGeometry x="400" y="40" width="100" height="100" as="geometry"/>
                </mxCell>
                <mxCell id="13" value="&lt;font color=&quot;#999999&quot;&gt;Base de Datos&lt;/font&gt;" style="whiteSpace=wrap;html=1;aspect=fixed;fillColor=#FFFFFF;rounded=1;arcSize=1;strokeColor=#DDDDDD;shadow=1;verticalAlign=top;" parent="16" vertex="1">
                    <mxGeometry width="100" height="100" as="geometry"/>
                </mxCell>
                <mxCell id="5" value="" style="shape=image;verticalLabelPosition=bottom;labelBackgroundColor=default;verticalAlign=top;aspect=fixed;imageAspect=0;image=data:image/png,iVBORw0KGgoAAAANSUhEUgAAAZ0AAAHkCAMAAADSLAKZAAAACXBIWXMAAAsTAAALEwEAmpwYAAABGlBMVEVHcExELCKHplxELCJELCJELCJELCJ2klBnXztELCJELCKPcE6PcE5ELCJELCKCxmRELCKBxmSBxWSCxmSPcE6BxmSDxWRELCKPcE6PcE6PcE5ELCKPcE6BxmSCxmOBxmSBxmSBxmRELCKPcE6DxmSCxmOCxmSBxWRUe1/C/2aBxWRALh5ELCKPcE5Pl0ZNk0RSmkhLkUJOlUZirVJnsFVbqk1erFBUp0prsVhUnEpXqUxvs1x1tmJRp0hQmEhWnkt6uWd/u2xzs15Jj0GFvnJSm0pEOSNMSyxCMyBPpUZGQSZxoVRSWzOLwnhpj0u2s5Zhe0LEwqdKazVGVSxaaTurqYlMfjx8vF/X1MGcoH55b1haG8F7lWBUmg9Ta4rBAAAAKnRSTlMA8BveYC7GDQUZRDTZeptpr03xgsLjMvqm616NfJuo+dTG/ZG7trG1/F0Rqj4JAAAgAElEQVR42uydXW/aPBvHb3HSniFAcEahUrdJxNK4B6uCQKTkJomVhAh1ET15vv/neOw4Tpxg3p01pte/L8loV6358b/e7LB//gGBQCAQCAQCgUAgEAgEAoFAIBAIBAKBQCAQCAQCgUAgEAgEAoFAIBAIBAKBQCAQCAQCgUAgEAgEAoFAIBAIBAKBQCAQCAQCgUAgEAhUrR4fer1Wq9nsdDr9fv+pIPIAebjZbLV6jQZcqr8hQoOw6D99f34edruD0WhEP9gnmbIvtNvd4fPL96c+4dXrPcCVVMikQSzS7H8ftkeK1B7+6DdbvV4DON2kXvOpO6pQ3admD67yxWo0Oy/D7mAwqlyDQXf40mlCcjqPS4+AaY/+utoEUQ8YHc0wne7oUzXsQDaSx7KXbntUA7W7zxDnSsl/OKqVhlAupHnms6PZwYKu88Xz0GNrOBjVWINh6/GruuZTarMrarmv56BG88dgpIkGL1+qTHjsPY+00mD03PsiIa7R7440VLd//wZ6aH0bjDTV4KX1cN/Zpj3SWu37zUAP/fZAbzgkAbX7d+mf3pPmvsn883R3Y4RefzC6Fw0G/d59xbTR/cBJAN1PfHtUPkn7sIMg2m7jOCTyuPzsjSn0yFfjeBtFQWB/qI5vnTuZpXVVEYkiCsTzsYEMw8BE5GAgdqBn4hEnJ/xr5Jt8L0WliFT3DmZwjZdbqRAs29hD7IIzHtlZBkQUzo5YeIwho0TJX/diCulWSt90L69vanA+gjj0XTc1B8oMQU8Qp4CNk0JY/L7Maa7rh9vgFkTtps5BrfHtyl87sYufPP1RflEx9wo+j4qAg33QH4YyI6U/2w/j6xm9NPTNOO2rDBPFPr2E3DBZgMJIOL+QDxLMh9kDxWzlk1h3DaJ2S1M6nSs8E6dxDGcRqRyQLmdT/AFYiJFYzFskJfmxffm/Wcvi7fH7hb9lFHtueg3lV/9mPoVqAae1hfBTKCrXiy/10HcNG9CLlnCCKKTlFOb5G1XJxpD+/JQV/YobRsEl//rnh/sNax/2VrjUiKeEivkc/Ns88m0vaIt0C26ts10T+5hjwUjoVT6FDcJ5W4X8+FwHDTQrDc6La8HWp89UhCUIPs07Ynnnbc8D9KzT2OCxecZvtIg89mTF+639Z8a11D28mvOixRm/jE5t6cPpRscO+e+PCzVTTfjkwx9aJJyus7sadaUnrRN5PMdgOY5PZ5M9X+g79qL7Mc8J63xEfj7GPHihruLjnQPtEj6YBVxs+NHxEq79cB/W2RYKAZVsDBQp9k4e44jVt0fLNm3Mc2zRYOvjUhWgks+bj7BiPthAfO7jH+PzossegmP5JltpQeq9g7zNTjmbwpD7SP4ZaLLX4OnQHgLbyzuJSvJOtHHUewcJzyWS2Q7Wb3096BxaqY7xifHZbWwwQpuNtVPuneISK3bjQ0W1Fh1pT26dwMMXJOJr+OB4swks96R7LuODikNTuuwdaBzanuQZpzyuV84G+ZvNxrTe1dZsuDxfIm9YjudJh2ZH7nsP51tlquGD/kfo2I7lI/U1dek7PPnvWP+W57F30Donl21uYYMNCmezsE6Z51Y2yZNMbh4NQlvnkHXOuezX83G3FM7mzbEs78RFvpkPqdw+NF3mkd7bbruVssGGmziH0LEs62fFbGgGldIZ1h5OQz4hEDc+VcDHXTA4mxWhY4X46FW+nQ8y5FOD2g+q5TM2H1fIBiNvtVkLdCy/2rhG4Pt6Dqql9XSQ99pV8AnX63WKZ53Q2bmoYj4o0LKmfj5csVXDBiMKZy1459U6NjFQwCYZGkkXsOteUEsHBWFhs59iPvFqXfYOwYMq5hNKF3lqPsyR7sX5cA1UFRvE4HDzcDrWO67WO6408dR8b05fmnaM4gZolXzi1Wq1XmXmWTsZHlRtbAs0nFNL59OxUVVNgMI3xmbPO9bsvVLvGLJR9aDec2r5jgLv7K1Ql/IhcLh3mHlyOknbUyEfT7vdBY8NaVHgV8QGeQKcfTrWn+rYYEPa8Qxq3Y9KR6AfqCLv4GC1EvGU6Vhhhd6RD3Nq/WJH0hFoVA0b5BI4bzmeDeVTpLP0KmOD5B1PrQeh0jsRQ2xUwQdHq7e3onfWJTqW5ePK6gJpx/OjznSkRUE1cQ1t3xKVYluJzsytqmYzsLQs0G1AbSOjCj7xQmCTFW1l71g/Ea6Kj63XmFq+LhpUwQb59oJZp1RTJ0gCAc8OV8KGtNeBZuujzQOTAvV5xw3eBDoUTjovcMrmsd7LG7VU8Yk0W0ToHNg3rZgNed5uCZxFnndW2bzA2ldYCRsk3Vc9qHHRJn2ZrxCrzzvxgmgvssm9Yzme7O6T2/nEmk3afvydOQ52AwpHhkfmndkvt4qaTT7LqXFJLd3xUbynTQUfTOEsiqGN1wUFLEzW7F9USU2t2c4PWbtjq68J4sU8pyPxTsqEfljJUZxXq2KD5SV1fRueB/mqNVI8K/BMe2FniedNnOasCR0nZWKlgJITrwLvyPcW1HZK3Tu6p0ANG3KI5nbqncX+tIDC4dbh5iHnP7F678hvhqttw9M6sPSmlk88n9vMPPve2awnDsWRMLGsWf62Q+r5SOnU9hUPO/K7dpSyQe50Pk/NI2SedJhDvCOENYFOvtijMO+EWk2p+/L9OEhpXbCdZ94p1wUUUOBwIhH9HPE/WuPsxh5lfEKtGh7p3byeSjYY/THnc8ZHqAuEccGEkHASME7mnyhJQjvV3kGeVnf3Ph/bpKuIT5SwmaeJR8CTlgWB47Cyzcpi3MxhR0+1d3ydXjLncXh8U4ECNujdNE2GZy+0MT4Tx0qrArGgTs5/YbWzAiSlM9SKTmlCfBsfHBA4ZhrZbNmsLXDSYlrgwzvTd/QX1t+GNW14HmSb2T6UxrV4WvDO2755TCcbEQhsUmC+Uu8YxodGt15L6QRYYd7xEzjmPC/bBDqsqCb9TtaMWgKYRDvhlalV8JGNcrp19U77xMrozd6JpxSPmXiHdTyFqo16h1fUAhYnfSef/qiMa/L1t7puOHwYHN8udTMfd2KaZp54pFWb6Ti5WxIijA87/oeU5h3t6WzVxTUcm8w7B6s2Qsh0Uq/MMjKOcPij0jtoq9EYVLpNN8bqvPNK4EyzxLPYG1Sn/U6Ghlsn8w6RixTmnVijXTmN4/cf3MiGWGcyzb1TnLXl3pk7TsYmBbOkxyU5G5M/hobCmk0nOr1Dt72p4eNSOLl5bJZ5SltzVubSmQl8UtcsM+9kq9gq+IQaLSG0To7ZbvJOOJlMA8E8vGorlm125h3uGVHj2fhdnXewp9FrU59B5wY+2Jpy7xA4JoXDzCOENmIec8nYcCpR5h725vxE6rzj6XN34mPr5JjtBu9gbzqZZomnYJ7CNId5h6WciHw4GZeEGDl5V5d3fI3uHZXuBHVV1WzbyWRicjy8pLb3tubMl5lhHGfpOEkJt0zNk7z/wlgVH1ej3aDNKr3jvpK0Q/CYU96QFjseXrbZtBQgXGYJGW6bZQ4nGRgoyjva03Evehnwww/vKJykLJjmNTXveBb5uMBO/eLM+JFzSRGNxz/RV/SOdFuBq2bdGkeTSZJ3UvOwYdtcaEgz7wieWRa9s6Q1G3n/oyrvuBptLOhIZgUfvqFkRu2TwMbwmIJ39ve1re1fSVjjbWgh4xA41DuzHarSOx2dvKOCDcK7CdNUmBfYsn1tdh7ORM+MuXHo+dJVlXc+9LkLQeadkavEO26KhlQFAW95yuZhoY3kHYHLOHkTyDD7vGME3lHkHWzgP6+vZe+kVZtd2u9O6AhkqFOouIHIKT07/OqHl7DBUjoDvfKOgpoNkcD2ytnk44IkspVmbZROmmGWPNPMOJYEzZKc+9gwKqvZ6rl0fUY3el1cw+g3904h8cgWeRY84YxT8zAgyeeIWYmc/qfEO0j/fgcp8E5I6STmCSb5Cpwpq9rSvDOmRMYcyjj5RL4yJscleWjpI+OL9TuVzQrwjtDJE08gVG3zctW2WCZlwHiZ+CaiEc1JwCTQ0uN4GVY2K6jrf8Qjn4IiBXO22eQ38w7PPNkg1F7M2aA69w61RpRGtJTJLDUOo0QdtVNSF/i6z6gVrO8g93funZxPtnMqn1QTPAuKImPCjDIW5gbs3HF8FTWbRisI8rVRT8GM+v3192taF7CioLAEZxcmoYl3krpsmVdpxETj1Drs1Fm+V7a+U9OXmTpj5foKNqTbsZh3uHuC8jqC2PEsUiTjzCmUStk6y0OvunvJnhyEdVq5PmPXx1V8/N+JdRicaZZ3zP9zd3W9beNKtOhL81Y0i/Stm11gsQ+2INly/BEllroyYlNWIBR24f7/f7L85lAibZNKATGyLX8EuHvvPXtmDg9nhiuT1/acSxTYTaAy4RmHJ6HueCMPfEKq+vj0O2py8IfdfD6XoU0teZ7gLo9UbYQ7DBKJi/r8guERpDq8gWb7GVA9m7nasH/eOcw18rAtOOi1Kb/gv+8lgEaAwp+UOTm7TfLEcsaVCz7GWSwh1VE3vdeiUUK5s1DwPJBFKfALYGXO84sAQzBHxLnHicCGZqJ83587Tejo1L3zznae8dDGdcFq9qD2r4VqE5GtzGFQk4KNv/gHaiPs+nOnDqmO+u43zP/Ci4p5kYHQ9qAXf7RENcs7jxKiSS7xYAA1XFvn+ak/d+qQOkSM3VW9886BUgeEtnqmL3lgGxzTbDx+5TyKNbm4cbDo5zRCfTVbSN1Vls7EnnknOmUZjm2LOdAF+g4pxec7Yw/mjsaVRrKH/8xBI9euN3dCGuduRmfbd280mSvyzMSap+52I7DQVtLohUFoNFDETYKD33tr6m1QXb1//46ea1Rg7hRAVD+ATZ6nleqPZxW7zzngyiSXWUZiojA69fXZ9kGdwfPPFUabMz77DF+CPMKo1pY8pRgt8cy5o2gykaDAmMb/mEQ9uRPUNImbbxeNNp+1aJYVFJ4FjG1aRTVUbc9MN08AChNFJ51I+z7Y2ObkDHYSi7Hs47XnvILTkqoCmHhUxa6wC9SKp4QEAdxpIUMvo0/tMJ8trClGny8abc7YoChdZjzxaHYObOWRiYfgA1LNRIty+ErVi7xt+nHHaLPdD3bk8dfRZaPNFR/0uGSJJ1voiadVXiB0gZE7lstotTnknaCm5918HF1qiffwcYrlEiceDE5B9+D4epQuSB9adW3fGXegOBOMoXRp6IdGopNu+613mrBG7d9fNtpc8dkul5w8iwXMPKLc/Yl3I/DE81xqjEnlpyYV32how1/x+7Yfd0xGzv1gwTGe+tZvpi7aM3Rw4sl01fag1bWpgW0wdAm2AGRA2snzY7+8YxzEMlx0jMtR1EuzHTE6y4LbBZqZU4N2BLVBWnIYmlTnjkxH/Kc4Tyep6VxFB3wCOxD2z0tVOe7cOfDIxoLbfKFVTlEzZ6Vx51kQBlKIPzEeGBx6i3OzW+DCnV1ghynbzkHogc8pk4kHSmpVUM3dHDEo9DmVwKQylEmYJinHJqZ/SXpxJ7RzED5fktTu3ElIZCOirdCs0JrSB4Q22QYH2EKjGIVDwJLLLxShHHljgyyCesAnvHyxSOoe+BTrJdcFWbu8QCxI6fACWXVIGTOR3KGwSFT4DwKgeIt6cKcJahz1bzi7CiEGzhLYBTPltel2DmYPXvFIVCht2EeBTczEAI9s+Ll/633rIZ9d9fbnvm0pOow8YoNU+dQzNflD1LU9K8ak7CnjWJyr4MYfuz55J7Bz38zL0V99fJw9Q4fY1AogWde2ApM/RDcCx0OGrzRvpx0FTnrsk3dM+9a3Qz4N9s333/brteROseCGATCqH7Sa0JJxB0CjoMoZLinkTnqM/LmzD2y58+HmjwsutbNmO64VeeZMGGibPKtON0Ir9U8ELIJE8mucxvFrj/2Dn8Gd1fv5/o3PeDmul0K0qS042QY363YjAO4IrvClaK4INEloRorTQ4+8E5hkI3sI9+eLpty5Uy0ledQmz6zdB6e6EUqQ+CcQkZyKhDyhciFmz+Tgiw2ynUI+ZO58vL3UFe/KnSUgz1xzQmEDNpiyCygD4hl9UsYkGBWRjUxGG+qTdu6HLNnMxbrAaXPWbIQ7Uhdk2byTeKBqo/DkOmsYMPhFoME3xh1+5d7csRwgcvtpyOjc3N1fKPxwwwdJ7hB4VGRbGFUb3SGFgjknEFDKiKUPCWiYOxSjGOcdf6/AWFRw92HQ17fzp/W6c2ddLSul2jKtNKemSx5dtZVCDYjUT5lCYIkFVBwjfJv4c8fssn0bNjpf3tbLAdxhkY2ueaSbw4pClWojoS3nmmySYAWQUKYQ8cx+miQclxhf+HZA3j5oHZxks3g5ShZ4cGctVVvbp4YF1erYFy7MWIrh3GG84VKN4UI+pN2aqau5Y6zSHX0aNneMm9cw8bhyZ41FQaW8Nj20scCmTwrNcx6/EvaI5Sf8maMSs9CWxv55J8S0Y6nW/eGJDVnvEPIor629B6cNL6Ch7TEFoiwWz1SHRfzZf73zM6gz387KgsafO0QUcHxI4ik6RaG13spDuUMFGeOJfGqo8FeP9U4ToCiwbI+W3tzZKe5Qu2DeKs2ZwQUprWt7BFzpEkbiQi9vrwCZtw8+Dx0do5cD6nJcPeqKkEdxR+0iLGRNKNiC45pN5pe4FeNSKabZ89XXZzOLgq9DR8d4Try0qR2xQRidtYIH7pAK7qzgWCNCnsd2coHf9D+ksef+DjJXfAxeFFiqpmpVxuG4N0q4s1ahTckC1eK7gsMLylwHIu7Esxj8ePTUbMZ+3iFXS51NPM9b35qcFxba1p3QBue1weEFjzC/xDppwC/sfeebd34FmXYsjQijvf24tfP4THFow9C0dkjnejcCXJDmaVefWT/sPbmz/xVm2rG4BT8jzx6EE0FH89rmcHpBrVQb19SPrYimcyiXb/Qnv5ocS9oZdMXHWbegRp7cObwATb3s7JC2Tq7A8OQ6NnFbs0FmJVtPzWZMO38FAM7N55G99MOdO1hSV2Q9WknRli0KqNrABulK5R39yuGXhL0S8vDBBlmarUNIO5ajE2U1taumZqINkod2wbV6RUBo4/sHeardNIQ4Pml68qyjfg1vX/R8aGt8e99ySh6eeZjXlrVaSKEuUNzRAhujCn9I7hz84lrUBLrasRqhpXJn3PYQEhrYlqAmlKg2K3ee8nZYSzrf+SNJjp7cKYO0QM8lnp3nvIIN5I5UbTK0PdBXLYVBOdFBSTQ86JPgwj7tPbBB5qMSA0k7Nk3dRF7cGR+qqiBLnjXtRjAsSB8eZJeizh0exhKNLuzF7tOt6fi/y/g0weppchnrdUvkxx0m2qr1ulvXNoNFofyA8nIC84uWbxIAEL1tUOTDnagMrUZXu4z1uiMU+eETV2o52mqDYyseejbCA/faVrmMaIlERYEiAhy9nSLkwx2zP/1HKOh8GdlUm8+MqVMl2NPBZ7Zoe22rMgf/9ycJ/NLGyqdeCtk23oY6wt1Qc2hc8fwix1hdL5LUbMM1xGbJNkgzMOuQnNUnVdsqV/GrFcgUd/hr5/Cvi/r71uix3X8KBR3z9vXo9TxJbNw5Vm3VNm+XF8jpBU+EO5IqCQxqaTfOIR/umGcXDX/T+pJP3YwjH3y2MrCBboQMdiOAgy6fViqOaTLakHeIU+DhUTeBbosqTX1nCW0e3CE2dQHJQ822jtcmMg/hDoCiQx/w62EceXDHHNhuwwlsFk09+om8YhsJbevODukCZp6VGrPbVs8t+gB8jmjsMSfHvHnwT0DgWFRb7ZV32IoHeG0ytIER1XJByrkjUFC6DSgDfu3HYw/u1GErNrsT2jm490p8Yp54CluvCBh2uAJ80dRaGxu82hl7zDY074reBQWORbU1XnmHmDkkuOl2gWZU1zOxy1Pq0UuTb/r16jN30mxPh6TY7KHt1z7ywuelImYb7EZojXcHA8EMaxzjNd2PPbhj1gSBBbYPN3eja85KuvKc6w0xc9ZroNrIipROO5Qjp+gmT01UwQVYKDT4iXy4Y9YEdzdhoWPx2srI61y+Q/VCzbY1VG3ZYrEwdCNchoXdiI3jjI9xYF5AHptckN5f5xdcxR00wdgo8mQqtinyiJrQs9BQXBhGe48zKswHvY1uv4aGjlm1mUT1NficKgYOMEKVXyC8NlYTOjWjIpARn062fzJyrsUJTbHZdcFo54ENW/IUutdWwG0EukNaU/JYgJHg8LeDx/kuaPcuNMF58iBnfBBd8tDSnEqNnMq0sxH4XJZ6A9ILxyLpMIcqNmfuoHdDHduSp222XZV3mJsDuKNtwsluBLIknWmBzPCWiMDmjE1kkdPfQkTHogtqD+7gb2nFSnZ55qGqrVh0uxFmGyDO5Ju4Sz6Rahzn2Gamzv3HmxDh+fOazHMddxDzC2SHr+FoBL7iKSgCU6idyVdIIfzcbD24Yy7FGf37IcjLogsaH+6MUY4j2wuEJ2slHua1FSkQAJA5jDNT9mT9oo74mE2cIDWB3S+4dCKP+Wd0EH6BtQF7VlPuTHV9JnjDnuyxQa5xzXbaToA+wQXy1F66YP/ClzzFGpJHtvKwHVLCnanmCpA4JoUC/3Sw1Qedw6d+V9SxHHF5caqR7ecD96nXQrTNi04b3Gz1qGBhSChYNhKivTM2tnKCwR4v6m22tVT1tfhsqVFdiT440UNaaPPaVmTzjUaxqQpkErANexzozk7khI9FTYdnsV3OPD888g4nj9YeT0PbQpuymwq2JIAxFJPplLwR1HbIBo2dOz/eWdY5R56dV2xL2A6c2uURPaTcpyZWjohjU3KnHyU+HKXkxP/jXfDZvT/q2Dqt4Cbp1dgQ1WTqRmhlnoSjwmDZTAUk4LE9QxHkVNgeSkeV7TJ3i2gHi1yPD9q0vLZMG3ZI7YINJ0/7wemD30gZGwlsyAEfiyQIpSvESp5b8/+scuvBnfG+0L02enq8xp06MaICHoQ65pJh238dNN6aN91Gt2FTx06eH2emf1jxIRXvUrWJyR9abc5sw9SaGRry/RDxpHM9d9CP90kd29Hkym5z4g4xQ2FNqNiCA90IUwNrpjKuTRPayBuNXfKOzWAb7IHjb0CeGiEPfI6w9KPo1rVh7uhsIRdRB+KXIxrTrh0HXWBzCcKnzgdb1a5Y9LhgQ3L5qdJKc+YFXJDOVkU342iy7RRd2P50iGt/vwNwLA0JyjFwi21bOj680kTbQhrVmDtcSncfU/zYcH8NOcQ2ZFnqjL7evAN0bv4dndFt12MTsVS+q8DsAjCjmnPHigs1C17RGb1m+ueiyKbXRv+zdy1MaSRbeGB4DC8FFAFRUcxmq4ZOZcnepPbu3U3qxlroQks0ikrK//87tl8z08NMPwYRFfrkZZCZxv7mO+frc/rxfh3AESdD2ZqEBNzBAME7f8gTOg2OTdkdDHjRRoAZUCWNft/1pUOd2HZFfu0Npz+18jlEt8FkY3aa0OHW+AZzcyg6PGMIYSg0+M/gbKyesaar1952Difk204kug0kwgcQ38Y2eP/Tn5vjc+fxI8XhzBt7YmS8r26AdKQT267Ir52sC3WEZbhoFVuBDevYC0YeFng48vzxSEMM5csZBWUwIF+f3dHUNEiAjSi/9oaLbvoTQAQrfVU1ZHj2zT/oEru2L8H0ghnBgvymCPlfDu4gVdNJuCPKr73NWVJCYVAXyepxcmzQP4O/5066RL8wOl9mPnUGXOAhdqOzyABq1Q3efoJtLmPQdV3NuaEKfIiwHv/DnXTJ1+BmZ8yNUanGeITzBSToQJAIn/NN8GvYRIMevk6qU6NkfukmfFgfGZMi8vxvRiugHneIoB7QoAMZstrYCJME6zLU4UoJruvqzXtXzisjebIbfp2Vv1Po+fQrx52B/zUt6kB2tSY+QjHdTVvrZqJsaHzogYrug/27v/2dP4JU6P9njwNOsrHB6NnHu2GIeVrcEQadtch+6g56gmy1/nxzsqYnWiH9/XH6yPjCVAEd+5yNGOOAvi4YCoPOGg11NHRbgqXY3rdwfIcffXS+ebnQ2XTmBRwKDBXV42DbS23uCEc6dcdaRxP7ttsFfBt6un8jQ9LPXIV0Npt6uAzO/D83NDMN6F96+Ny6G+TX5GNSd5Q87qB/hp+oLAh2ZplNp199n8Ziz0cCDtRwatw7hMPQt3AUxYK6rS5WBiA5d/r98W9eovpPH51LPuhg+wG8UZKaON7NxYqgnl5XdEQLrmJW+0K9Icl47izF6XT6eBa2H6wupHuyjrRW7Xb31hYcyzl0xflQuAg+iD3cSp4/EDqzjxFw/GGSJj5icNxDx1pjeISy2r2CC3AHwfPJn/zxGQnq6XTyD4cN2w8cgiTcEecI3JN1Bkfm2+Z3adHFZ/hftr87+oXCDnJtn/xhDqlUsxTBE08NW3u/RsgjLPW49xcLYIM4MfzkH8qDwZlMA+rccMk5be6IwVm75GcUHrGsvg9tjqKLD9JhdyyZ8zsBZ3LOsLkbsUkEQC+Lo0rguEeOtfZ2LH42xwtwpw8huKPC4D+EO5PpJwrOMKg4SOdIhcERf7oTawMsLQ4934cAJtYFOOj/ILmc7xgbZDMi1obMoUE2M/cJB7q95X0Jlhd68AFkibGhY/tvyLvNphSeawQPO6syGIlqRR1x6nMDgg6DZ0cCz7C/GD7jr5+/0LBzjWx6Q6a/+eTp6/k1GTg7jrMh8Jwo2ZOUOxCAwTmjDsLnMbRoV5M5AH53N3WkEyomSJTB5YK+rQ9mhDqYO1MAgDdfGgJd5khSBO5x3toc26tL4IGLYIOQ+Em5cz25/glAn6u16cUc8dy1N7l74VOsJhZu7tVwIe7AC8+vXQc1On18ZMzp1qzNsm1X6twSxx0ceZhim8y8Ob1UDmilP2XMWduC2yLpatFBSiruwEcWdi4AhSZY5AafBM6htXHmvHMVsSfZFF4kBG5p1LkeA8+tAT3FBmVuzf3F2ZpSyhwAABC/SURBVDx0JLNAKDwwMT4jFnYAgD4uUCdPIAWnnrc20dKNhdgjWlECwHBKqDMZwvDqQ/gEQeA20tZm2p4MnvNhHybkzpBS55qFHQ4huGiGwG3sWZtqMl0dbAeiuywOgBlBZwIgmMsVyIgjSXxuoJZOAA9MtIUaBB+uGTpME+jgM/rLgCMc9kjhGSVcUvoTg/MwmXdn0o1ypczZtjbbdmTw4KVxSY5mG5GwMwF9f5mb6ooLWevrs3J3cXhk3RM3h1esFZAswNyZspqphma7koKzvfHgSKs9dCKV9lHUACB0Hq4n3kZFqj3g4OW9lDl5g47owAR/4DPU5g4EjDsgvNhAIC3Gl9KGDx0DjRqe6PIesaeaXj88PEyjE9rjrhh+l4NjcGE5HTk838e60xAB02wgXG+LExZAKtYMc3QT1nQXUajPnUl0K5zoFbeuAWdZ8FxBPe4QdK6BekOkS9e4tSTwdOXBZ6iFzwyj88AqO2J8FCHHgJNQWHN5A8lSeTB7UHMHggsFODvGrSWF5/5WPfKn6DwMgSzuQEXI6ZoMQWzOTd5rXslHyZ2HoWyhlrReYDIEYvbUuirvpsAH/JxgdEYACLmj8mrdmskQiNhT1/BusmoNAD8RfcYgHhvk767koxy3YZgjtr2uyruN+4qF0wCMgIg7Y5VXq9cMBhLnllawJ7xCLooAwHNzgIA7t/cqcNIGAqmlT1TwXA7FxVFKnuiOK+SIi0sVOCdpI6VV8LxT9KGgZCqdYQXUcsB13xk9oOHdjlTdyGZax6MAvIU7iVI3G7IqdBnwbKu0gXt+IcAGxkxqR6+piWOGOdpWq2vQRzjhIHLU61hNHCPW9MkjnybqnewH4/bbBXPnIWLi3Ctv1jBiLZE2+FXZo8ES4JgtkaF+5gbZr0YPJLP8TldNn1sY2c+Vn+6Bt3C7UmNjpncsog3UwcfPvIV3RPb3xIEjtRpw60YPLJTWaWg896EpO7DPp0nBWMOpmZCzcPA50ujd+6vQnB22dS5xavcalx8ZcBa2HQ3v5v4VPlqWVkaHtzrY1E2l7UneTQce9/sYzk38HOlgs2kL3Z/Bu73X6Wb3PJR7uzjXush4tafbthZ93Etfvl1cal1gtNpSpHW64erhM8aibazHG6PVljcy1etw93w80sTGjECXmRbVpM+9JjbHJum5VPd21HWXZt0jQ5xl02d58Bgd/Qza+nA52BymLVMFfQbvVjt+OjYm4jyfeHtq9OkeOYY3z5jZeRJ9jk3Eee6xT31RbOrbRqo9vzr4ZSH31n1v5hKuxr0tAE99z2CzIvGW364bp/aK8UknUW9dUypYefjRVm8nBpsXUG+1hg5/GjUTcF7Gv20r+XNsSmwvOfqRlhYaZm37C4cfyUptI9ReAT7x/GnsGDHwSv1bt2Eq06/IwsNTM93m1elrfznwidkQ4hVa7QgRqH5kqgSv1XZ2LFOWNmbMmDFjxowZM2bMmDFjxowZM2bMmDFjxowZ2xxzWu1yuby7u9tCv5Ch/5TRK21k6OXWwX4p9rJ0cBG5jFyHDV9i5p4sy/Y/KKxdPogB6FR6ye6+6dilUGf3g4ZFejtfVl1RMn27BCvtH7R2Q8996/S01dott8NsCPe2Qy5rc9/Hzo2/pL1vyulLsr2W16llHDNIv+ZL+y2OIe2DmMs8WNs00qBLOKCNd1uaeb16Gnri03xvt6JkKDG27Pqcskr+FW2zLHLZ4uA08o2AP7uROXNe+NnlfJ7j87BlunVZ4UeEjpVuidnjlONwmPN3xp4s3cToWNaBD8+pQPGF0dkzkeeZuHNgSeHZjw9Xc6Tald3M2JLRCeAp5zW44+xLiGhs6ej4bPhwEGZJOZY7+0YWLHnEI0cn3Y6P9LHcsUqGOyvlTuDbDuLQCY+S/JsZVbAidPIeecqOOu54N3tRRe3ko4PhfF5ngJzPKxZDFYKvstmso7qbXpvOE9AJktKlmPHOHHcOXijsZCu5LP1chUzVTtnVSoH7rNlOzrbDr0URLXaqNroyV61kRdCgW2e95poANO2trPADZaq5lG3ntjLcW/JzH6CgblOJzl6sa4sdjTJ/115pmhr9jLlUr1cknbKFeq2H/9gZ7/uZXK/XA+ilXqoiukdxC92hR98HQC7jRBupoEYAyJJGUvh26Ia9ZsWJhTFHGiS/U9VMgb6pGHwm2qaNbtGkTca1qYWORxM+ayPgTmnFUSdfzCBkAOkK1G8FjI1vFIpirum/2APV2C4oVj1cPMvxz3Ixs4Xhx/3YRK9XUvS9kHR+9I5OxSaNBXdM5bY6nS30QTJ8m2DOcjH8cQrKAeRpTOCJy+Q46XKc9n5GywVoNAtWxg7/uOhpzHeazVC/b8VA3CHX5yqVSifHuh1wHZnBVMR9jV5P5QsYbRjcsDd/xyzmTW+rmM0WO3MfiPJ7rs2tHGD3a2YW4E5QROVSzz53+DuVaXlndU6N+/FTxQ7uFTtnp7wnO5XN5uj3OBAjPVDA7+nRB9dxgkfae6NTbHqQAWBn7J7PHPJ3DxRDD3vWJh+G7shaqJI3emDa+Zg2LdYm5NrUHu9wQiwkC7wcda2ELF0q7R+QmNM+XalcQ4Ha73fkGyrZPH7N7rG+REA1q5ksfoyZOwJ2HDi8f8p4XV90vA6v5ALf2MOBpFhEvGiyTs/xrqKQAqFerrJm8XtTmXCbVqhNwLeZgDtpH518NBjN161r+RXXdooef+yM/2hWA7+TZQufaY/MP+qWk4t0MPZkmBSpQGE5RQ8fmOoUEMXQTZ2Kxyk+XmA0mjkOLZtRttPxdZmoTXQvu5AcnXZ0jOkIpxeUT1c8sSBL+61aCPcJflrt4jwOKPKEnp4ODku9MGKVHo3qW7zgtmm0sblBTobxgtNtRdIu76Aq1LPxY6NOE8S0CWPjohodf6KHFjrYu61yg4t/27u2HUdxIBrCzZC2xUitcRLnyXml/8P//0WLL4Av5YSe3YFeqY5ammkSqLTLVXXqAiHWmciA8RhXoaQItGj2pyx97dT6XNXEZMNu5MK/JFuYhn/MEAjv9CH5KFaqrzBzBJY5hjK3aQewnTnufNwNHs9PX10fe5pPZ/7+IvAJnSUCoZ1Yfxe8kXnc23OWbiP7xy1ZD/dALa07WleqTCSQ0liY8GXqyycyuTV3+sfauZxecLb28lwVdLvsF32s7YTaOQ3KsKJTYlCBS9GnqpH3J3Ajc9/MmL6g4oEUYhObVXSdBg8yRFZsP25OZhiONuQ7ZPFsl9f5zum8Nut27F1DtnMSJj9pku2peVGsryKp8FjHaHLP0HZ46HisNa4He+B6LIpNWZnKkpH6T1kBlO9ENeplsO3zWNsxkT2yHRsC/IyHhWmI904V8zs257yxhSq5LCjpx0SFhEWZDDMeDJI5xptnS76z6C9oj4J1NkJW9ewWeroS0I7lUw1gZH6Att6kTL1wk7AxZjhbZDvMsraFkPWWYgdZyxCteVZmyWOZm2zn8qrOli0sXPeKPC1kO5XxEk1K7qRnO1MQVzGL85ZUhbEcsB1hlVhH+5/FiuZFGxIHnpGpAv6wSTsP4B3wxJQeOpyD1O1Y2+GpZ3PUe93ZnS0gACslbHbD3sSdyXaUbzt26QO3NQlV/oUmmQooWRiZhimKb9rOPNb2631/x9Pl1+lI2zERANSO59m6MhN3SJVUOA1ne2c7xASikdOIYHhKtZ92m8xN2nGKuJH3/R2/HbQfK+CQdlSS8jlTqcKVmhazIyBpC7MUazvhW6l1gGshwG6K6cOQoEJBk0wsJ1N917OBkxx521myoyM5G3lhO32UPMZFFa8USk8h1ZKhZyPU1ktX22kbWwQq69W6FPd7QMQV3vqc7dDv5TsPiISRrO0s2dGhjBrkbNZ2PEbVjDGLW7SjohfAuEPHkLNpXqDDim7DTgdb2xtgMR1UG2Wetk99RNw5x9nWCtzR2lFvbedk2y9yyOxjv+glbOUutp2oSE1IX8z9u7IpuRxlUQF0EJDpVB0V2t7kO8t45wUMRtesNvfjbHwzZ5ORdmwTAAjRIukFsYgAZGzHazbYxWZxgKGuONcCPDEo2uXDSlooeMD+K4073d7joLB2tsQd23yYbKwCc4+gxG3NbHwdd5zhNbaiKQtgDIi4hgcg05Q3QlJA3mjnCt/BA/s7Px3drYFdm8mBRDsQZ4u14wrIY1zOJyZvD9zYwHO2o8Z4sG1iG5xVfQ02Ionr3AIy02LEG9txa337nYn9aUXgCk7F/1XtAJkIBWynTrTjXFPcMNWXVEFreakepHEnKY2dJt9mLCNTLMnLHCOZpzeD6fdc0ex8yxQ750LbfrMf9QixKZ6ts/WpOcUdYyFlfMXBDRvEC63ig50AS9AbZKZ/xaoAaLPf7VLffiX7YNZOctZ19zH3HqiAEbNuHKpRh2vpdn84lmYLchSoi4apERGJ7RAztqUAwrxBppI0x8nS3U6e+U7nJXPWM3ej6d9D5bqWJO2qhK2sGph7IY2lUOPgTbQMunsZ+RgXoXpAiq+KebqGs77uMlPZ84RDINOM5rFcnNALHbbl5ruur9Ad1PfgRvrFotzFrjsqp4OmOeoyzTPbAZq5dLW2US4TImYIToYznm1llSibNpRi6mrNqjOXAZkp3qIom2YQtOq7qOHpZHJP5uRL5RAvW+s/j+XzcXE043x5fLx4NgS5rE3qj/u5tVWMy/P2te8waFtXbBk4bISdKG97yop5yG86aFxe14tyHgrlA/XWq3Z9FTk2tK/rShSaA/qV4poyN+OjazQDrfQitZUY1iHGklF7xW6ZdRzNWLadTdTz8OHmkYFMVugSg4g6mY/nR/JsHP1souXZHbdnYjjknpz1oR9qtDz/43O/mYIqHIS1bRQd0tfpXG6DDxuXYzKqrnTBRLOxkaaK+gTrULT+X2+inRylWg7KuSZXzcfUuIiUeu4+WPtIJp/Obyo4sn+9GE0jJBuncg/WIfsNfFAeDiob7bBVNWqpmaz7PB23OVVNOG5etWmaOHozt0Y78cH5irTwr+VNXIe+8o1M/4ZqWDV3KHq8GmT7+rhedv2uppoJSmllQKkQ1JRSmBD6sIEQrDcHxfw+887oxpvpnKZwtwuInkT7izZT+BgGNmH6Z/qlNfEqOrg2SK1f9VSjoGGoWGZSfLbPVbuZR7LdJkMyP7ebfThbxgLa5Xls+pSb5xGfU9Ta//uAiKk9khcGS4K35d5Iurqf0H1HNAF/sUG/KMvSRLDVfHj3XZmtxnlFdz63W9ZYn2XOu/zupp/zmfzvv6iJ/EcuuSqUHPqJTnfdtPp0pS2c/guZxE1vn765fQh+g5a/bZlcB0vM4pPeVUXHAZfnWPvT2VfRg9UBJRtcoENhsmCgijNwqCyN2Fc5RVIY90p8Ej3boX6tge5oMK+UKvMKYs/ShYLuzbV6A2Z/EPtByOQGrJnJ6UJdg9T2SLAcbybmPqwKV+hIgDNPTm/I2I5GD/SA7As8uIUbcQhce3uIFNEXEhjNRezMqPvk0QkTOsqlKlA5P4C1zRXpUvR117Wd7ntGjzlAHGU8hHld0aIsCvMUMMlaXJufwduKMXm0F3q1H4O5NWpdnCwY6uZHoatYMzm1oiwH0SOP/smBCNcAgUAgEAgEAoFAIBAIBAKBQCAQCAQCgUAgEAgEAoFAIBAIBAKBQCAQCAQCgUAgEAgEAoFAIBAIBAKBQCAQCAQCgUAgEAgEAoFAIBAIBALxv8A/rXKHT+grzrIAAAAASUVORK5CYII=;clipPath=inset(8.67% 3.91% 10.67% 1.56%);imageBackground=none;imageBorder=none;" parent="16" vertex="1">
                    <mxGeometry x="20" y="30" width="60" height="60" as="geometry"/>
                </mxCell>
                <mxCell id="26" value="" style="endArrow=classic;html=1;strokeColor=#333333;fontColor=#00BED4;" parent="1" edge="1">
                    <mxGeometry width="50" height="50" relative="1" as="geometry">
                        <mxPoint x="223" y="80" as="sourcePoint"/>
                        <mxPoint x="257" y="80" as="targetPoint"/>
                    </mxGeometry>
                </mxCell>
                <mxCell id="27" value="" style="endArrow=none;html=1;strokeColor=#333333;fontColor=#00BED4;startArrow=classic;startFill=1;endFill=0;" parent="1" edge="1">
                    <mxGeometry width="50" height="50" relative="1" as="geometry">
                        <mxPoint x="223" y="99.99999999999997" as="sourcePoint"/>
                        <mxPoint x="257" y="99.99999999999997" as="targetPoint"/>
                    </mxGeometry>
                </mxCell>
                <mxCell id="28" value="" style="endArrow=classic;html=1;strokeColor=#333333;fontColor=#00BED4;" parent="1" edge="1">
                    <mxGeometry width="50" height="50" relative="1" as="geometry">
                        <mxPoint x="363" y="79.89999999999998" as="sourcePoint"/>
                        <mxPoint x="397" y="79.89999999999998" as="targetPoint"/>
                    </mxGeometry>
                </mxCell>
                <mxCell id="29" value="" style="endArrow=none;html=1;strokeColor=#333333;fontColor=#00BED4;startArrow=classic;startFill=1;endFill=0;" parent="1" edge="1">
                    <mxGeometry width="50" height="50" relative="1" as="geometry">
                        <mxPoint x="363" y="99.9" as="sourcePoint"/>
                        <mxPoint x="397" y="99.9" as="targetPoint"/>
                    </mxGeometry>
                </mxCell>
                <mxCell id="36" style="edgeStyle=none;html=1;entryX=0;entryY=0.5;entryDx=0;entryDy=0;strokeColor=#333333;exitX=1;exitY=0.5;exitDx=0;exitDy=0;" edge="1" parent="1">
                    <mxGeometry relative="1" as="geometry">
                        <mxPoint x="190" y="191" as="sourcePoint"/>
                        <mxPoint x="218" y="191.5" as="targetPoint"/>
                    </mxGeometry>
                </mxCell>
                <mxCell id="31" value="Cloud&#10;Build" style="sketch=0;html=1;verticalAlign=top;labelPosition=center;verticalLabelPosition=bottom;align=center;spacingTop=-6;fontSize=11;fontStyle=1;fontColor=#999999;shape=image;aspect=fixed;imageAspect=0;image=data:image/svg+xml,PHN2ZyB4bWxucz0iaHR0cDovL3d3dy53My5vcmcvMjAwMC9zdmciIHhtbG5zOnY9Imh0dHBzOi8vdmVjdGEuaW8vbmFubyIgd2lkdGg9IjE3LjMyOTk5OTkyMzcwNjA1NSIgaGVpZ2h0PSIxOS42MTAwMDA2MTAzNTE1NjIiIHZpZXdCb3g9IjAgMCAxNy4zMjk5OTk5MjM3MDYwNTUgMTkuNjEwMDAwNjEwMzUxNTYyIj4mI3hhOwk8c3R5bGUgdHlwZT0idGV4dC9jc3MiPiYjeGE7CS5zdDB7ZmlsbDojNDI4NWY0O30mI3hhOwkuc3Qxe2ZpbGw6IzY2OWRmNjt9JiN4YTsJLnN0MntmaWxsOiNhZWNiZmE7fSYjeGE7CTwvc3R5bGU+JiN4YTsJPHBhdGggY2xhc3M9InN0MCIgZD0iTTEyLjE4IDcuOThMMTEgNy4yOWwtMy41MiA2LjEgMS4xOC42OCAzLjUyLTIuMDN6IiBmaWxsPSIjNDI4NWY0Ii8+JiN4YTsJPHBhdGggY2xhc3M9InN0MSIgZD0iTTYuMzIgMTIuNzJsMy41My02LjA5LTEuMTktLjY5LTMuNTIgMi4wNHY0LjA2eiIgZmlsbD0iIzY2OWRmNiIvPiYjeGE7CTxwYXRoIGNsYXNzPSJzdDIiIGQ9Ik0zLjc1IDcuOThMMCA1LjgxdjkuMmw3Ljk3IDQuNnYtNC4zM2wtNC4yMi0yLjQ0em05LjEzLTEuMmwzLjc2LTIuMTdMOC42NiAwIC42OCA0LjYxbDMuNzYgMi4xNyA0LjIyLTIuNDR6TTkuMzUgMTkuNjFsNy45OC00LjZ2LTkuMmwtMy43NiAyLjE3djQuODZsLTQuMjIgMi40NHoiIGZpbGw9IiNhZWNiZmEiLz4mI3hhOzwvc3ZnPg==;" vertex="1" parent="1">
                    <mxGeometry x="151" y="170" width="36" height="42" as="geometry"/>
                </mxCell>
                <mxCell id="32" value="Cloud&#10;Run" style="sketch=0;html=1;verticalAlign=top;labelPosition=center;verticalLabelPosition=bottom;align=center;spacingTop=-6;fontSize=11;fontStyle=1;fontColor=#999999;shape=image;aspect=fixed;imageAspect=0;image=data:image/svg+xml,PHN2ZyB4bWxucz0iaHR0cDovL3d3dy53My5vcmcvMjAwMC9zdmciIHhtbG5zOnY9Imh0dHBzOi8vdmVjdGEuaW8vbmFubyIgd2lkdGg9IjM2NS40NjQ5OTY3NzA0MjQ5MyIgaGVpZ2h0PSIzNzkuMjIyOTk0NDYzNTc3OTUiIHZpZXdCb3g9IjAgMCA5Ni42OTU5OTkxNDU1MDc4MSAxMDAuMzM1OTk4NTM1MTU2MjUiPiYjeGE7PHN0eWxlIHR5cGU9InRleHQvY3NzIj4mI3hhOwkuc3Qwe2ZpbGw6IzQyODVmNDt9JiN4YTsJLnN0MXtmaWxsOiNhZWNiZmE7fSYjeGE7PC9zdHlsZT4mI3hhOwk8cGF0aCBjbGFzcz0ic3QwIiBkPSJNMjkuNzk0IDEwMC4zMzZMNDYuOTIgNTAuMTY4aDQ5Ljc3NnpNMCA5OS42NzFsMTIuOTc2LTQ5LjUwMkgyOS4yMkwxNi44OTcgOTIuMDU0eiIvPiYjeGE7CTxwYXRoIGNsYXNzPSJzdDEiIGQ9Ik0yOS43OTQgMEw0Ni45MiA1MC4xNjhoNDkuNzc2ek0wIC42NjZsMTIuOTc2IDQ5LjUwMkgyOS4yMkwxNi44OTcgOC4yODN6Ii8+JiN4YTs8L3N2Zz4=;" vertex="1" parent="1">
                    <mxGeometry x="218" y="171" width="41" height="41" as="geometry"/>
                </mxCell>
                <mxCell id="39" style="edgeStyle=none;html=1;entryX=0;entryY=0.5;entryDx=0;entryDy=0;strokeColor=#333333;exitX=1;exitY=0.5;exitDx=0;exitDy=0;" edge="1" parent="1">
                    <mxGeometry relative="1" as="geometry">
                        <mxPoint x="330" y="191" as="sourcePoint"/>
                        <mxPoint x="359" y="191.5" as="targetPoint"/>
                    </mxGeometry>
                </mxCell>
                <mxCell id="33" value="Cloud&#10;Build" style="sketch=0;html=1;verticalAlign=top;labelPosition=center;verticalLabelPosition=bottom;align=center;spacingTop=-6;fontSize=11;fontStyle=1;fontColor=#999999;shape=image;aspect=fixed;imageAspect=0;image=data:image/svg+xml,PHN2ZyB4bWxucz0iaHR0cDovL3d3dy53My5vcmcvMjAwMC9zdmciIHhtbG5zOnY9Imh0dHBzOi8vdmVjdGEuaW8vbmFubyIgd2lkdGg9IjE3LjMyOTk5OTkyMzcwNjA1NSIgaGVpZ2h0PSIxOS42MTAwMDA2MTAzNTE1NjIiIHZpZXdCb3g9IjAgMCAxNy4zMjk5OTk5MjM3MDYwNTUgMTkuNjEwMDAwNjEwMzUxNTYyIj4mI3hhOwk8c3R5bGUgdHlwZT0idGV4dC9jc3MiPiYjeGE7CS5zdDB7ZmlsbDojNDI4NWY0O30mI3hhOwkuc3Qxe2ZpbGw6IzY2OWRmNjt9JiN4YTsJLnN0MntmaWxsOiNhZWNiZmE7fSYjeGE7CTwvc3R5bGU+JiN4YTsJPHBhdGggY2xhc3M9InN0MCIgZD0iTTEyLjE4IDcuOThMMTEgNy4yOWwtMy41MiA2LjEgMS4xOC42OCAzLjUyLTIuMDN6IiBmaWxsPSIjNDI4NWY0Ii8+JiN4YTsJPHBhdGggY2xhc3M9InN0MSIgZD0iTTYuMzIgMTIuNzJsMy41My02LjA5LTEuMTktLjY5LTMuNTIgMi4wNHY0LjA2eiIgZmlsbD0iIzY2OWRmNiIvPiYjeGE7CTxwYXRoIGNsYXNzPSJzdDIiIGQ9Ik0zLjc1IDcuOThMMCA1LjgxdjkuMmw3Ljk3IDQuNnYtNC4zM2wtNC4yMi0yLjQ0em05LjEzLTEuMmwzLjc2LTIuMTdMOC42NiAwIC42OCA0LjYxbDMuNzYgMi4xNyA0LjIyLTIuNDR6TTkuMzUgMTkuNjFsNy45OC00LjZ2LTkuMmwtMy43NiAyLjE3djQuODZsLTQuMjIgMi40NHoiIGZpbGw9IiNhZWNiZmEiLz4mI3hhOzwvc3ZnPg==;" vertex="1" parent="1">
                    <mxGeometry x="291" y="170" width="36" height="42" as="geometry"/>
                </mxCell>
                <mxCell id="34" value="Cloud&#10;Run" style="sketch=0;html=1;verticalAlign=top;labelPosition=center;verticalLabelPosition=bottom;align=center;spacingTop=-6;fontSize=11;fontStyle=1;fontColor=#999999;shape=image;aspect=fixed;imageAspect=0;image=data:image/svg+xml,PHN2ZyB4bWxucz0iaHR0cDovL3d3dy53My5vcmcvMjAwMC9zdmciIHhtbG5zOnY9Imh0dHBzOi8vdmVjdGEuaW8vbmFubyIgd2lkdGg9IjM2NS40NjQ5OTY3NzA0MjQ5MyIgaGVpZ2h0PSIzNzkuMjIyOTk0NDYzNTc3OTUiIHZpZXdCb3g9IjAgMCA5Ni42OTU5OTkxNDU1MDc4MSAxMDAuMzM1OTk4NTM1MTU2MjUiPiYjeGE7PHN0eWxlIHR5cGU9InRleHQvY3NzIj4mI3hhOwkuc3Qwe2ZpbGw6IzQyODVmNDt9JiN4YTsJLnN0MXtmaWxsOiNhZWNiZmE7fSYjeGE7PC9zdHlsZT4mI3hhOwk8cGF0aCBjbGFzcz0ic3QwIiBkPSJNMjkuNzk0IDEwMC4zMzZMNDYuOTIgNTAuMTY4aDQ5Ljc3NnpNMCA5OS42NzFsMTIuOTc2LTQ5LjUwMkgyOS4yMkwxNi44OTcgOTIuMDU0eiIvPiYjeGE7CTxwYXRoIGNsYXNzPSJzdDEiIGQ9Ik0yOS43OTQgMEw0Ni45MiA1MC4xNjhoNDkuNzc2ek0wIC42NjZsMTIuOTc2IDQ5LjUwMkgyOS4yMkwxNi44OTcgOC4yODN6Ii8+JiN4YTs8L3N2Zz4=;" vertex="1" parent="1">
                    <mxGeometry x="359" y="171" width="41" height="41" as="geometry"/>
                </mxCell>
                <mxCell id="37" style="edgeStyle=none;html=1;entryX=0.5;entryY=0;entryDx=0;entryDy=0;strokeColor=#333333;" edge="1" parent="1">
                    <mxGeometry relative="1" as="geometry">
                        <mxPoint x="169" y="143" as="sourcePoint"/>
                        <mxPoint x="169" y="167" as="targetPoint"/>
                    </mxGeometry>
                </mxCell>
                <mxCell id="38" style="edgeStyle=none;html=1;entryX=0.5;entryY=0;entryDx=0;entryDy=0;strokeColor=#333333;" edge="1" parent="1">
                    <mxGeometry relative="1" as="geometry">
                        <mxPoint x="309" y="143" as="sourcePoint"/>
                        <mxPoint x="309.0000000000001" y="167" as="targetPoint"/>
                    </mxGeometry>
                </mxCell>
            </root>
        </mxGraphModel>
    </diagram>
</mxfile>